<?xml version="1.0" encoding="UTF-8"?>
<svg xmlns="http://www.w3.org/2000/svg" xmlns:xlink="http://www.w3.org/1999/xlink" viewBox="0 0 406.88 181.12">
  <defs>
    <style>
      .cls-1 {
        fill: url(#linear-gradient);
      }

      .cls-1, .cls-2, .cls-3 {
        stroke: #231f20;
      }

      .cls-1, .cls-2, .cls-3, .cls-4 {
        stroke-miterlimit: 10;
      }

      .cls-1, .cls-2, .cls-4 {
        stroke-width: 3px;
      }

      .cls-5 {
        font-size: 72px;
      }

      .cls-6 {
        font-size: 48px;
      }

      .cls-7 {
        fill: #faba61;
      }

      .cls-2 {
        fill: #0fa70f;
      }

      .cls-3 {
        fill: #231f20;
        font-family: Crang, Crang;
        stroke-width: 8px;
      }

      .cls-4 {
        fill: #ad3587;
        stroke: #000;
      }
    </style>
    <linearGradient id="linear-gradient" x1="342.35" y1="23.39" x2="390.06" y2="71.1" gradientTransform="translate(-26.88 -9.23)" gradientUnits="userSpaceOnUse">
      <stop offset=".22" stop-color="#5b6ee1"/>
      <stop offset=".88" stop-color="#fbf236"/>
    </linearGradient>
    <image id="image" width="263" height="317" xlink:href="1.png"/>
  </defs>
  <g id="cards">
    <g>
      <g>
        <rect class="cls-4" x="286.14" y="1.5" width="41.31" height="66.2" rx="10.32" ry="10.32"/>
        <use transform="translate(315.43 5.01) scale(.04)" xlink:href="#image"/>
      </g>
      <g>
        <rect class="cls-1" x="318.66" y="4.92" width="41.31" height="66.2" rx="10.32" ry="10.32" transform="translate(33.27 -113.36) rotate(19.93)"/>
        <image width="572" height="611" transform="translate(355.39 12.37) rotate(19.93) scale(.02)" xlink:href="2.png"/>
      </g>
      <g>
        <rect class="cls-2" x="351.86" y="20.25" width="41.31" height="66.2" rx="10.32" ry="10.32" transform="translate(121 -226.56) rotate(39.91)"/>
        <use transform="translate(398.95 36.33) rotate(39.91) scale(.04)" xlink:href="#image"/>
      </g>
    </g>
  </g>
  <g id="back">
    <text class="cls-3" transform="translate(4 64.81)"><tspan class="cls-6"><tspan x="0" y="0">Nocturnal</tspan></tspan><tspan class="cls-5"><tspan x="0" y="86.4">Skirmish</tspan></tspan></text>
  </g>
  <g id="front">
    <g>
      <path class="cls-7" d="M11.66,68.6v-1.92h-3.84v-1.9h-3.82V18.71h11.51v3.84h1.92v3.84h1.92v3.84h1.92v3.84h1.92v3.84h1.92v3.82h1.92v-3.82h-1.92V14.89h3.82v1.9h3.84v1.92h3.84v46.08h-11.51v-3.82h-1.92v-3.84h-1.92v-3.84h-1.92v-3.84h-1.92v-3.84h-1.92v-3.84h-1.92v3.84h1.92v23.02h-3.84Z"/>
      <path class="cls-7" d="M50.05,64.78v-1.9h-3.84v-1.92h-1.92v-1.92h-1.92v-3.84h-1.9v-17.27h1.9v-3.84h1.92v-3.84h1.92v-1.92h1.92v-1.92h3.84v-1.92h7.69v1.92h3.84v1.92h1.9v1.92h1.92v1.92h1.92v3.84h1.92v17.27h-1.92v3.84h-1.92v1.92h-1.92v1.92h-1.9v1.92h-3.84v1.9h-9.61ZM57.74,53.28v-1.92h1.92v-3.84h1.92v-5.77h-1.92v-3.82h-1.92v-1.92h-1.92v1.92h-1.92v3.82h-1.92v9.61h1.92v1.92h3.84Z"/>
      <path class="cls-7" d="M84.6,64.78v-1.9h-3.84v-1.92h-1.92v-1.92h-1.92v-3.84h-1.9v-15.35h1.9v-3.84h1.92v-3.84h1.92v-1.92h1.92v-1.92h1.92v-1.92h3.84v-1.92h3.85v-1.92h9.6v1.92h1.92v1.92h1.92v15.35h-11.51v-5.74h-3.86v1.92h-1.93v3.82h-1.9v9.61h1.9v1.92h7.7v-1.92h3.83v-1.92h1.92v-1.92h3.85v13.45h-1.92v1.92h-3.84v1.9h-15.35Z"/>
      <path class="cls-7" d="M128.73,68.6v-1.92h-3.84v-1.9h-3.82v-24.94h3.82v-1.92h-15.35v-3.84h1.9v-3.84h1.92v-3.84h30.73v3.84h-1.92v3.84h-1.92v3.84h-7.66v30.68h-3.84Z"/>
      <path class="cls-7" d="M174.81,68.6v-1.92h-3.82v-1.9h-3.84v-3.82h1.92v-1.92h-1.92v1.92h-1.92v1.92h-3.84v1.9h-3.84v1.9h-7.69v-1.9h-1.9V26.39h11.51v26.88h1.92v-1.92h3.84v-1.92h1.92v-26.88h3.84v1.92h3.82v1.92h3.84v42.21h-3.84Z"/>
      <path class="cls-7" d="M193.98,68.6v-1.92h-3.84v-1.9h-3.82v-30.7h3.82v-1.92h-7.64v-3.84h1.9v-3.84h1.92v-3.84h11.51v1.92h5.79v1.92h3.82v1.92h1.92v1.92h1.92v1.92h1.92v3.84h1.92v7.66h-1.92v3.84h-1.92v1.92h-1.92v1.92h-1.92v1.92h1.92v1.92h1.92v1.92h1.92v1.92h1.92v1.92h1.92v1.92h-1.92v1.92h-1.92v1.9h-1.92v1.9h-3.84v-1.9h-1.9v-1.9h-1.92v-1.92h-1.93v-1.92h-1.93v-1.92h-1.93v-1.92h-1.92v1.92h1.92v11.48h-3.84ZM201.69,41.75v-1.9h1.93v-3.84h-1.93v-1.92h-3.86v7.66h3.86Z"/>
      <path class="cls-7" d="M228.55,68.6v-1.92h-3.84v-1.9h-3.82V26.39h11.51v3.84h1.92v3.84h1.92v3.84h1.92v3.82h1.92v-3.82h-1.92v-15.38h3.84v1.92h3.82v1.92h3.84v38.39h-11.51v-3.82h-1.92v-3.84h-1.92v-3.84h-1.92v-3.84h-1.92v3.84h1.92v15.33h-3.84Z"/>
      <path class="cls-7" d="M261.18,68.6v-1.92h-3.84v-1.9h-3.82V26.39h11.51v5.77h1.92v-7.69h-5.77v-3.84h11.53v5.77h1.92v7.69h1.92v7.66h1.9v7.69h1.92v7.69h1.92v7.66h-9.59v-3.82h-7.69v7.64h-3.84ZM268.87,51.38v-3.84h-1.92v-5.77h-1.92v9.61h3.84Z"/>
      <path class="cls-7" d="M286.14,64.78V22.55h3.82v1.92h3.84v1.92h3.84v28.8h15.35v9.59h-26.86Z"/>
      <path class="cls-7" d="M12.61,151.18v-2.85H4v-5.77h2.85v-5.77h2.88v-5.77h8.65v2.88h17.3v-2.88h-2.88v-2.88h-8.65v-2.88h-5.77v-2.88h-5.77v-2.88h-2.88v-2.88h-2.88v-2.85h-2.85v-17.3h2.85v-5.77h2.88v-2.88h2.88v-2.88h2.88v-2.88h5.77v-2.88h5.77v-2.85h17.26v2.85h2.88v2.88h2.88v23.06h-17.26v-11.53h-2.88v2.88h-2.88v2.88h-2.88v2.88h-2.88v5.77h2.88v2.88h5.77v2.88h11.5v2.85h5.77v2.88h2.88v2.88h2.88v14.41h-2.88v5.77h-2.88v2.88h-2.88v2.88h-5.73v2.85H12.61Z"/>
      <path class="cls-7" d="M70.2,156.91v-2.88h-5.77v-2.85h-5.73v-57.59h17.26v17.3h-2.88v5.73h2.88v-5.73h2.88v-5.77h2.88v-5.77h2.88v-5.77h17.26v5.77h-2.88v5.77h-2.88v5.77h-2.88v5.73h-2.88v5.77h-2.88v2.88h2.88v2.88h2.88v2.88h2.88v2.88h2.88v2.88h2.88v2.88h2.88v2.88h-2.88v2.88h-2.88v2.88h-2.88v2.85h-5.73v-2.85h-2.88v-2.88h-2.88v-2.88h-2.88v-2.88h-2.88v-2.88h-2.88v-2.88h-2.88v2.88h2.88v20.11h-5.77Z"/>
      <path class="cls-7" d="M122.02,156.91v-2.88h-5.77v-2.85h-5.73v-63.35h5.73v2.88h5.77v2.88h5.77v63.32h-5.77Z"/>
      <path class="cls-7" d="M150.78,156.91v-2.88h-5.77v-2.85h-5.73v-46.05h5.73v-2.88h-11.46v-5.77h2.85v-5.77h2.88v-5.77h17.26v2.88h8.68v2.88h5.73v2.88h2.88v2.88h2.88v2.88h2.88v5.77h2.88v11.5h-2.88v5.77h-2.88v2.88h-2.88v2.88h-2.88v2.88h2.88v2.88h2.88v2.88h2.88v2.88h2.88v2.88h2.88v2.88h-2.88v2.88h-2.88v2.85h-2.88v2.85h-5.77v-2.85h-2.85v-2.85h-2.88v-2.88h-2.89v-2.88h-2.89v-2.88h-2.89v-2.88h-2.88v2.88h2.88v17.23h-5.77ZM162.33,116.63v-2.85h2.89v-5.77h-2.89v-2.88h-5.79v11.5h5.79Z"/>
      <path class="cls-7" d="M202.63,156.91v-2.88h-5.77v-2.85h-5.73v-57.59h17.26v5.77h2.88v5.77h2.88v5.77h2.88v5.73h2.88v5.77h2.88v-5.77h2.88v-5.73h2.85v-5.77h2.88v-5.77h2.88v-5.77h17.26v63.32h-5.75v-2.88h-5.75v-2.85h-5.75v-17.26h2.85v-5.77h-2.85v5.77h-2.88v5.77h-2.88v5.77h-2.85v5.73h-8.65v-5.73h-2.88v-5.77h-2.88v-5.77h-2.88v-5.77h-2.88v5.77h2.88v22.99h-5.77Z"/>
      <path class="cls-7" d="M268.87,156.91v-2.88h-5.77v-2.85h-5.73v-63.35h5.73v2.88h5.77v2.88h5.77v63.32h-5.77Z"/>
      <path class="cls-7" d="M283.25,151.18v-14.38h25.95v-2.88h-5.77v-2.88h-8.65v-2.88h-5.77v-2.88h-2.88v-2.88h-2.88v-5.75h-2.85v-11.51h2.85v-5.77h2.88v-2.89h2.88v-2.89h5.77v-2.88h5.77v-2.88h17.26v2.88h2.88v2.88h2.88v17.3h-17.26v-5.77h-2.88v2.88h-2.88v2.88h-2.88v2.9h2.88v2.87h5.77v2.88h8.65v2.88h5.73v2.88h2.88v2.88h2.88v11.52h-2.88v5.76h-2.88v2.88h-5.73v2.84h-31.71Z"/>
      <path class="cls-7" d="M343.72,156.91v-2.88h-5.77v-2.85h-5.73v-63.35h5.73v2.88h5.77v2.88h5.77v25.91h5.77v-2.88h5.77v-28.79h5.77v2.88h5.73v2.88h5.77v63.32h-5.77v-2.88h-5.73v-2.85h-5.77v-17.26h2.88v-2.88h-2.88v2.88h-5.77v2.88h-5.77v20.11h-5.77Z"/>
    </g>
  </g>
</svg>