<?xml version="1.0" encoding="UTF-8"?>
<svg id="Layer_1" xmlns="http://www.w3.org/2000/svg" viewBox="0 0 406.2 161.19">
  <defs>
    <style>
      .cls-1 {
        fill: #6f7fcb;
      }

      .cls-2 {
        fill: #e7e24a;
      }

      .cls-3 {
        fill: #5b6ee0;
      }

      .cls-4 {
        fill: #d0cf63;
      }

      .cls-5 {
        fill: #959da2;
      }

      .cls-6 {
        fill: #cdcc66;
      }

      .cls-7 {
        fill: #6979d1;
      }

      .cls-8 {
        fill: #a7ad8f;
      }

      .cls-9 {
        fill: #919aa6;
      }

      .cls-10 {
        fill: #98a19e;
      }

      .cls-11 {
        fill: #5f71dc;
      }

      .cls-12 {
        fill: #f0e940;
      }

      .cls-13 {
        fill: #aaaf8b;
      }

      .cls-14 {
        fill: #7a87bf;
      }

      .cls-15 {
        fill: #cac9c9;
      }

      .cls-16 {
        fill: #9ca39b;
      }

      .cls-17 {
        fill: #8894b0;
      }

      .cls-18 {
        fill: #b2b584;
      }

      .cls-19 {
        fill: #7986be;
      }

      .cls-20 {
        fill: #eee743;
      }

      .cls-21 {
        fill: #dbd857;
      }

      .cls-22 {
        fill: #a3a993;
      }

      .cls-23 {
        fill: #7684c3;
      }

      .cls-24 {
        fill: #7281c7;
      }

      .cls-25 {
        fill: #8893b0;
      }

      .cls-26 {
        fill: #231f20;
      }

      .cls-27 {
        fill: #ac3586;
      }

      .cls-28 {
        fill: #dfdb53;
      }

      .cls-29 {
        fill: #8d97ab;
      }

      .cls-30 {
        fill: #d4d25f;
      }

      .cls-31 {
        fill: #c5c56f;
      }

      .cls-32 {
        fill: #b4b781;
      }

      .cls-33 {
        fill: #7e8cbc;
      }

      .cls-34 {
        fill: #faba61;
      }

      .cls-35 {
        fill: #818eb7;
      }

      .cls-36 {
        fill: #c8c86b;
      }

      .cls-37 {
        fill: #7499b7;
      }

      .cls-38 {
        fill: #ebe446;
      }

      .cls-39 {
        fill: #f3ec3d;
      }

      .cls-40 {
        fill: #7c89bd;
      }

      .cls-41 {
        fill: #f7ee3a;
      }

      .cls-42 {
        fill: #c2c372;
      }

      .cls-43 {
        fill: #9fa698;
      }

      .cls-44 {
        fill: #0fa60f;
      }

      .cls-45 {
        fill: #bfc075;
      }

      .cls-46 {
        fill: #8490b4;
      }

      .cls-47 {
        fill: #cbca68;
      }

      .cls-48 {
        fill: #7f8cba;
      }

      .cls-49 {
        fill: #babc7a;
      }

      .cls-50 {
        fill: #6375d8;
      }

      .cls-51 {
        fill: #e3de4e;
      }

      .cls-52 {
        fill: #bcbe78;
      }

      .cls-53 {
        fill: #d9d55a;
      }

      .cls-54 {
        fill: #6c7cce;
      }

      .cls-55 {
        fill: #fefefe;
      }

      .cls-56 {
        fill: #b7ba7d;
      }

      .cls-57 {
        fill: #faf136;
      }

      .cls-58 {
        fill: #929ba6;
      }

      .cls-59 {
        fill: #aeb387;
      }

      .cls-60 {
        fill: #7281c6;
      }

      .cls-61 {
        fill: #6677d4;
      }
    </style>
  </defs>
  <g id="cards">
    <g>
      <path class="cls-15" d="M406.2,43.3h-.16c-.41-.55-.41-1.09,0-1.63.05,0,.1,0,.15,0v1.62h.01Z"/>
      <path class="cls-26" d="M406.05,41.68v1.63c-.22,2.58-1.17,4.85-2.83,6.84-9.7,11.58-19.39,23.17-29.09,34.75-4.14,4.94-11.52,5.64-16.51,1.53-4.62-3.8-9.2-7.66-13.78-11.51-.47-.4-.87-.54-1.51-.43-1.98.32-3.93.11-5.82-.58-4.96-1.8-9.93-3.6-14.9-5.4-.31-.11-.63-.18-.94-.27-1.53-.22-2.9-.89-4.31-1.45-.44-.18-.87-.39-1.31-.58-3.21-2.11-5.29-4.97-5.83-8.84-.26-1.84-.05-3.64.56-5.39,1.69-4.89,3.51-9.73,5.27-14.6,2.09-5.8,4.2-11.59,6.3-17.38,1.03-2.84,2.08-5.67,3.08-8.52.19-.54.34-1.08.45-1.64.42-.33.48-.84.68-1.29.37-.83.76-1.65,1.24-2.43.39.18.45-.19.59-.37,3.45-4.14,8.5-5.53,13.57-3.7,6.28,2.27,12.57,4.53,18.84,6.83,4.96,1.82,7.63,5.44,8.1,10.67.13,1.5-.19,2.97-.54,4.46.62-.73,1.24-1.47,1.85-2.2,2.69-3.21,6.12-4.67,10.29-4.37,2.42.18,4.59,1.08,6.45,2.63,5.33,4.44,10.66,8.88,15.96,13.34,2.55,2.15,3.89,4.94,4.16,8.25l-.02.02Z"/>
      <path class="cls-26" d="M326.78,6.13c0,.14.08.31.02.41-.6.98-1.05,2.02-1.45,3.1-.08.22-.2.14-.34.08-.33-.16-.42-.48-.55-.79-1.51-3.68-4.31-5.58-8.27-5.58h-20.3c-4.82,0-8.55,3.71-8.55,8.53,0,15.08.02,30.16-.02,45.24-.01,4.27,3.3,8.26,7.68,8.59.72.05,1.43.13,2.15.13h16.35c.54,0,1.08-.01,1.58.26,1.43.54,2.87,1.07,4.29,1.62.44.17.86.36,1.29.54-1.35.65-2.81.81-4.27.81-6.8.02-13.59.02-20.39,0-6.85-.02-11.99-5.21-11.99-12.07V12.12c0-6.96,5.15-12.09,12.13-12.09s13.77-.08,20.66.03c4.44.07,7.77,2.21,9.98,6.07h0Z"/>
      <path class="cls-44" d="M364.43,86.07c-1.67.04-3.6-.86-5.33-2.32-5.02-4.2-10.03-8.42-15.08-12.58-4.27-3.52-4.75-8.93-1.19-13.15,5.09-6.03,10.12-12.1,15.18-18.15,4.62-5.52,9.23-11.06,13.88-16.56,3.11-3.69,8.74-3.84,12.64-.52,4.66,3.98,9.38,7.89,14.1,11.79,1.85,1.53,3.53,3.16,4.14,5.58.86,3.37-.24,6.17-2.44,8.74-3.94,4.61-7.79,9.3-11.69,13.95-4.16,4.97-8.34,9.93-12.51,14.9-1.34,1.6-2.67,3.22-4.01,4.83-1.84,2.21-4.15,3.47-7.71,3.48h.02Z"/>
      <path class="cls-27" d="M315.08,66.09c-6.31,0-12.63,0-18.94-.02-2.87-.01-5.3-1.05-7.14-3.32-1.31-1.62-1.95-3.47-1.95-5.55,0-15.1-.02-30.2,0-45.31,0-5.08,3.87-8.84,8.98-8.84h20.02c4.52,0,7.64,2.32,8.96,6.66.1.42,0,.81-.15,1.21-3.43,9.46-6.86,18.92-10.29,28.38-1.49,4.13-3.03,8.24-4.47,12.38-1.87,5.36-.21,10.5,4.39,13.87.21.15.49.24.58.53h.01Z"/>
      <path class="cls-3" d="M323.19,24.63c1.24-3.48,2.48-6.96,3.73-10.44.54-1.52,1.06-3.04,1.67-4.53,1.63-4,6.21-6.38,10.3-5.05,5.3,1.73,10.5,3.77,15.74,5.68.01.39-.32.48-.58.59-5.76,2.63-11.49,5.36-17.24,8.03-4.12,1.91-8.23,3.85-12.34,5.79-.3.14-.58.33-.91.37-.31.04-.57-.02-.37-.44h0Z"/>
      <path class="cls-10" d="M363.97,23.91c-.1.51-.26,1.01-.53,1.46-1.3.22-2.39.94-3.55,1.48-7.3,3.4-14.59,6.81-21.88,10.22-4.26,1.99-8.52,3.97-12.76,5.99-3,1.42-6.03,2.78-9.03,4.23-.41.2-.85.5-1.34.14.17-.48.34-.96.51-1.45,1.25-.89,2.71-1.39,4.09-2.04,3.19-1.51,6.4-2.99,9.6-4.48,6.37-2.98,12.75-5.95,19.11-8.94,3.25-1.52,6.52-3.02,9.75-4.58.4-.2.81-.39,1.24-.53.34-.07.51-.42.83-.52,1.07-.34,2.05-.91,3.09-1.31.33-.13.87-.51.86.34h.01Z"/>
      <path class="cls-22" d="M362.54,27.86c-.1.51-.24,1.01-.53,1.46-1.62.46-3.09,1.3-4.6,2.01-4.28,2.01-8.55,4.02-12.84,6.02-5.94,2.77-11.86,5.55-17.8,8.31-3.12,1.45-6.24,2.9-9.34,4.38-1.11.53-2.25.97-3.33,1.56-.23.13-.48.26-.77.15.16-.62.36-1.23.67-1.8.6-.52,1.36-.74,2.06-1.07,5.58-2.61,11.16-5.22,16.73-7.83,8.5-3.98,17.02-7.94,25.51-11.93,1.16-.55,2.29-1.18,3.51-1.59.29-.1.8-.44.71.34h.02Z"/>
      <path class="cls-58" d="M315.83,44.92c.2-.59.4-1.19.6-1.78,3.21-1.6,6.48-3.07,9.72-4.59,3.24-1.53,6.5-3.03,9.75-4.55,5.42-2.52,10.82-5.08,16.24-7.59,1.49-.69,2.96-1.43,4.48-2.05.6.16,1.28.16,1.66.79-.13.35-.45.47-.74.61-4.05,1.86-8.07,3.76-12.11,5.64-3.04,1.41-6.07,2.83-9.1,4.25-6.52,3.06-13.04,6.13-19.58,9.15-.28.13-.57.37-.91.12h-.01Z"/>
      <path class="cls-43" d="M362.54,27.86c-.07-.5-.35-.26-.58-.16-1.23.55-2.46,1.09-3.67,1.66-5.3,2.49-10.59,5-15.89,7.49-4.68,2.2-9.36,4.38-14.04,6.57-4.44,2.07-8.88,4.14-13.33,6.2-.32.15-.68.22-1.02.33.04-.45.25-.85.43-1.25.55-.58,1.29-.85,2-1.17,2.38-1.04,4.71-2.19,7.06-3.28,2.36-1.09,4.71-2.18,7.07-3.28,2.22-1.03,4.42-2.1,6.65-3.12,3.5-1.61,6.96-3.29,10.47-4.89,2.15-.98,4.27-2.01,6.41-3,2.68-1.25,5.33-2.55,8.05-3.72.33-.14.67-.3.99.03-.19.54-.26,1.12-.59,1.6h0Z"/>
      <path class="cls-8" d="M313.34,51.74c4.65-2.18,9.3-4.36,13.96-6.54,1.95-.91,3.9-1.82,5.84-2.74,6.16-2.9,12.32-5.8,18.49-8.69,3.16-1.48,6.34-2.94,9.52-4.4.27-.12.56-.45.87-.05,0,.39-.19.73-.38,1.06-1.55.99-3.26,1.64-4.91,2.41-3.25,1.52-6.5,3.05-9.76,4.56-5.43,2.52-10.84,5.06-16.26,7.6-4.09,1.91-8.19,3.82-12.27,5.75-1.6.75-3.19,1.52-4.81,2.22-.24.1-.48.28-.76.09.16-.42.31-.83.47-1.25v-.02Z"/>
      <path class="cls-13" d="M312.87,52.99c2.66-1.22,5.33-2.43,7.98-3.67,6.09-2.85,12.17-5.72,18.26-8.57,3.57-1.67,7.15-3.33,10.72-5,3.71-1.73,7.42-3.46,11.12-5.2.22-.1.44-.18.69-.17-.14.67-.5,1.21-1.02,1.63-4.7,2.37-9.52,4.49-14.27,6.74-2.95,1.39-5.91,2.75-8.86,4.14-6.33,2.97-12.67,5.94-19.01,8.89-1.55.72-3.1,1.42-4.62,2.19-.39.19-.79.48-1.24.12,0-.39.11-.74.27-1.09h-.02Z"/>
      <path class="cls-59" d="M312.6,54.08c.34.03.64-.06.95-.2,4.26-2.02,8.53-4.04,12.79-6.04,4.75-2.23,9.51-4.46,14.27-6.68,4.6-2.15,9.19-4.3,13.79-6.44,1.78-.83,3.57-1.66,5.35-2.5.27-.13.54-.26.86-.2-.55.78-1.15,1.51-1.83,2.19-.97.14-1.77.69-2.63,1.09-4.25,2-8.5,3.98-12.75,5.97-5.96,2.78-11.92,5.57-17.88,8.35-3.98,1.85-7.96,3.73-11.95,5.58-.37.17-.7.49-1.16.34.03-.48-.15-.99.19-1.43v-.03Z"/>
      <path class="cls-29" d="M356.61,24.43c-1.37.98-2.99,1.48-4.48,2.22-2.19,1.1-4.44,2.05-6.66,3.09-6.19,2.9-12.37,5.82-18.56,8.73-3.24,1.52-6.5,3.01-9.75,4.51-.23.11-.44.34-.74.16.18-.48.36-.97.54-1.45.84-.69,1.87-1.05,2.84-1.5,4.54-2.13,9.09-4.26,13.64-6.37,5.93-2.76,11.84-5.58,17.79-8.29,1.25-.57,2.44-1.27,3.75-1.7.6.06,1.18.16,1.62.62v-.02Z"/>
      <path class="cls-25" d="M354.99,23.9c-1.25.63-2.48,1.28-3.75,1.88-2.19,1.03-4.4,2.01-6.59,3.03-6.11,2.86-12.22,5.74-18.33,8.61-2.68,1.26-5.36,2.5-8.04,3.75-.43.2-.89.35-1.33.52.2-.54.4-1.09.6-1.63,1.48-.86,3.07-1.49,4.61-2.22,4.38-2.07,8.78-4.11,13.17-6.16,5.15-2.4,10.29-4.85,15.46-7.2.82-.37,1.61-.8,2.4-1.22.69-.04,1.32.06,1.78.65h.02Z"/>
      <path class="cls-16" d="M363.13,26.26c-1.12.1-2.07.66-3.06,1.13-1.75.82-3.5,1.63-5.25,2.45-2.8,1.31-5.6,2.62-8.4,3.93-2.75,1.28-5.49,2.56-8.24,3.84s-5.49,2.56-8.24,3.85c-3.09,1.45-6.18,2.91-9.28,4.36-2.07.97-4.15,1.92-6.23,2.87.15-.42.31-.84.46-1.26.5.02.93-.19,1.36-.39,4.4-2.08,8.8-4.17,13.2-6.24,4.59-2.16,9.19-4.3,13.79-6.45,4.76-2.23,9.52-4.45,14.28-6.68,1.7-.8,3.41-1.59,5.12-2.38.27-.13.58-.44.8.07-.03.33-.13.62-.32.89h.01Z"/>
      <path class="cls-23" d="M319.45,34.86c.23-.6.45-1.21.68-1.81.43.08.83-.03,1.21-.22,4.02-1.94,8.07-3.8,12.11-5.69,5.26-2.46,10.51-4.94,15.78-7.37,1.9-.88,3.78-1.8,5.7-2.65.3-.13.58-.33.93-.29.32.16.66.29.84.65.03.56-.45.67-.81.83-3.04,1.4-6.06,2.86-9.1,4.26-3.37,1.55-6.71,3.15-10.08,4.7-5.35,2.47-10.66,5.01-16.02,7.46-.39.18-.79.49-1.25.12h.01Z"/>
      <path class="cls-18" d="M312.41,55.51c6.35-2.97,12.71-5.93,19.06-8.9,3.05-1.43,6.1-2.87,9.16-4.3,5.86-2.75,11.72-5.5,17.59-8.24.2-.09.49-.42.57.12-.23.4-.51.75-.87,1.05-2.18,1.32-4.56,2.24-6.85,3.32-3.24,1.54-6.5,3.05-9.75,4.56-5.39,2.51-10.78,5.04-16.17,7.55-3.9,1.82-7.79,3.67-11.7,5.46-.32.15-.61.4-1.01.26,0-.3-.01-.6-.02-.89h0Z"/>
      <path class="cls-52" d="M313.26,59.53c-.22-.27-.33-.59-.38-.93.85-.79,1.95-1.12,2.96-1.6,2.64-1.26,5.3-2.5,7.95-3.75,2.1-.98,4.2-1.99,6.32-2.94,1.44-.64,2.85-1.37,4.28-2.03,1.33-.61,2.61-1.31,3.98-1.83,1.29-.48,2.47-1.2,3.72-1.76,2.6-1.18,5.17-2.43,7.78-3.6,1.25-.56,2.44-1.26,3.73-1.73.25-.09.58-.55.85,0-.4.59-.84,1.14-1.36,1.63-3.68,1.86-7.46,3.54-11.19,5.3-3.33,1.57-6.66,3.13-10,4.67-5.32,2.46-10.61,4.99-15.94,7.42-.89.41-1.69,1.04-2.71,1.15h0Z"/>
      <path class="cls-31" d="M350.86,43.67c-.42.58-.84,1.16-1.38,1.63-.62.48-1.36.74-2.06,1.07-4.1,1.95-8.22,3.86-12.34,5.78-5.23,2.43-10.44,4.89-15.67,7.32-1.27.59-2.55,1.17-3.81,1.79-.34.17-.68.4-1.1.2-.23-.18-.4-.4-.52-.67-.05-.59.48-.63.82-.79,2.87-1.34,5.74-2.69,8.62-4.03,3.26-1.51,6.51-3.03,9.76-4.55,5.58-2.61,11.16-5.24,16.76-7.81.28-.13.65-.52.92.06h0Z"/>
      <path class="cls-24" d="M355.88,16.91c-5.22,2.43-10.43,4.86-15.65,7.29-3.05,1.43-6.1,2.86-9.15,4.3-3.26,1.54-6.52,3.09-9.8,4.59-.3.14-.81.75-1.15-.04.11-.3.21-.6.32-.9,2.15-1.12,4.37-2.08,6.57-3.11,3.22-1.51,6.45-3,9.68-4.51,6.07-2.85,12.15-5.66,18.2-8.53.42-.2.85-.48,1.36-.22.16.47,0,.83-.37,1.12h-.01Z"/>
      <path class="cls-11" d="M323.19,24.63c.12.6.45.21.66.11,1.82-.83,3.63-1.68,5.44-2.53,6.19-2.91,12.37-5.82,18.55-8.73,2.26-1.07,4.53-2.13,6.79-3.2.36.13.72.25,1.08.38.23.59-.25.73-.6.9-2.69,1.3-5.4,2.57-8.12,3.83-3.36,1.56-6.71,3.15-10.08,4.71-4.48,2.07-8.93,4.2-13.42,6.24-.27.12-.67.51-.87-.13.11-.55.29-1.08.57-1.57h0Z"/>
      <path class="cls-5" d="M315.83,44.92c1.66-.74,3.33-1.46,4.98-2.23,5.3-2.48,10.59-4.99,15.89-7.48,3.68-1.73,7.36-3.44,11.04-5.16,3.52-1.64,7.04-3.28,10.56-4.91.47-.22.78-.03,1.02.37-3.33,1.75-6.79,3.22-10.19,4.83-6.02,2.85-12.07,5.62-18.11,8.44-3.41,1.59-6.79,3.25-10.21,4.81-1.79.82-3.51,1.79-5.39,2.4.14-.35.28-.71.42-1.06h-.01Z"/>
      <path class="cls-7" d="M358.22,11.58c.43.12.88.21,1.26.48-.13.54-.59.73-1.02.93-4.05,1.86-8.07,3.76-12.11,5.65-3.2,1.49-6.39,2.99-9.58,4.48-4.82,2.25-9.64,4.5-14.46,6.76-.33.16-.69.4-1.09.14.13-.36.26-.72.38-1.09.15-.32.44-.48.74-.62,7.48-3.5,14.97-6.99,22.45-10.49,4.47-2.09,8.93-4.22,13.43-6.24h0Z"/>
      <path class="cls-32" d="M312.43,56.41c5.44-2.54,10.88-5.08,16.32-7.63,2.84-1.33,5.68-2.65,8.52-3.99,6.16-2.9,12.32-5.81,18.5-8.68.69-.32,1.36-.76,2.14-.88-.44.63-.9,1.24-1.5,1.73-1.82.69-3.53,1.6-5.29,2.42-7.01,3.29-14.04,6.55-21.05,9.85-4.49,2.11-8.99,4.23-13.5,6.3-1.33.61-2.59,1.37-4.01,1.79-.2-.29-.17-.61-.14-.93v.02Z"/>
      <path class="cls-1" d="M356.24,15.83c-1.51.23-2.76,1.11-4.11,1.73-6.21,2.86-12.38,5.8-18.57,8.71-3.65,1.71-7.29,3.43-10.96,5.1-.69.32-1.35.79-2.16.79.1-.29.2-.59.29-.88.33-.36.75-.58,1.19-.78,4.55-2.12,9.1-4.25,13.65-6.37,5.94-2.76,11.85-5.56,17.8-8.3,2.09-.96,4.16-1.97,6.26-2.92.3-.14.58-.32.93-.3.35.05.48.37.72.55.06.43-.29.54-.57.68-.81.41-1.61.85-2.45,1.2-.12.03-.33,0-.34.04-.28.89-1.01.76-1.68.76h0Z"/>
      <path class="cls-35" d="M317.94,38.98c.15-.42.3-.83.45-1.25,1.29-.9,2.77-1.4,4.17-2.06,3.37-1.61,6.76-3.17,10.14-4.74,5.25-2.45,10.5-4.91,15.74-7.36,1.46-.68,2.96-1.28,4.36-2.1.13-.08.26-.15.42-.09.33.64-.25,1.01-.45,1.49-.29.41-.72.62-1.16.82-7.59,3.53-15.18,7.08-22.75,10.64-3.25,1.53-6.5,3.05-9.76,4.53-.36.16-.73.48-1.16.12Z"/>
      <path class="cls-54" d="M360.56,12.6c-1.26.87-2.73,1.34-4.09,2.01-2.19,1.09-4.45,2.05-6.66,3.09-6.19,2.91-12.38,5.83-18.58,8.73-3.49,1.63-7,3.22-10.5,4.83.16-.42.32-.84.49-1.26,1.22-.26,2.26-.95,3.37-1.45,3.35-1.51,6.65-3.12,9.98-4.69,5.76-2.7,11.52-5.4,17.29-8.1,2.08-.97,4.18-1.92,6.27-2.87.5-.22.93-.54,1.35-.86.41.09.76.27,1.08.54v.03Z"/>
      <path class="cls-40" d="M318.55,37.37c.07-.45.26-.86.48-1.26.58-.71,1.44-.96,2.21-1.31,4.4-2.03,8.78-4.12,13.18-6.15,6.08-2.82,12.13-5.71,18.22-8.5,2.18-1,4.3-2.1,6.52-3.01.41-.06.76.01.95.44-.03.54-.44.74-.85.92-4.89,2.17-9.69,4.52-14.54,6.76-6.92,3.19-13.79,6.48-20.72,9.66-1.55.71-3.11,1.4-4.62,2.19-.26.13-.49.36-.83.27h0Z"/>
      <path class="cls-50" d="M322.62,26.2c.19.33.41.11.61.02,2.38-1.1,4.77-2.19,7.14-3.3,6.18-2.9,12.36-5.82,18.54-8.72,2.08-.97,4.17-1.92,6.25-2.88.29-.13.5-.32.54-.66.53.19,1.07.38,1.6.57-.04.54-.51.63-.87.79-3.03,1.41-6.06,2.84-9.09,4.26-3.36,1.57-6.71,3.14-10.07,4.7-4.8,2.23-9.59,4.48-14.38,6.72-.23.11-.58.49-.8-.05.09-.52.25-1.01.53-1.45h0Z"/>
      <path class="cls-47" d="M348.33,46.66c-.49.55-.81,1.24-1.41,1.7-1.81,1.05-3.75,1.84-5.64,2.73-3.3,1.55-6.62,3.07-9.91,4.63-5,2.36-10.04,4.65-15.02,7.05-.11.05-.23.08-.35.09-.37-.16-.63-.46-.89-.74-.03-.44.32-.53.61-.67,8.19-3.82,16.37-7.65,24.55-11.48,2.36-1.1,4.69-2.25,7.09-3.27.29-.12.63-.57.97-.03h0Z"/>
      <path class="cls-42" d="M350.86,43.67c-.94-.09-1.64.51-2.41.86-3.39,1.55-6.75,3.18-10.13,4.76-6.16,2.88-12.33,5.75-18.5,8.62-1.68.78-3.36,1.55-5.03,2.34-.29.14-.63.22-.8.54-.18-.15-.32-.33-.34-.58-.06-.64.47-.78.87-.97,2.2-1.08,4.43-2.09,6.65-3.13,3.33-1.56,6.66-3.11,9.99-4.66,5.31-2.48,10.61-4.97,15.92-7.44,1.33-.62,2.66-1.22,3.98-1.86.36-.17.74-.47,1.15-.08-.53.46-.76,1.18-1.34,1.6h-.01Z"/>
      <path class="cls-4" d="M317.61,63.78c-.41-.09-.76-.29-1.07-.56,0-.6.53-.68.9-.85,3.14-1.48,6.27-2.97,9.42-4.42,3.23-1.49,6.45-3.02,9.68-4.51,2.8-1.29,5.57-2.64,8.38-3.89.28-.13.72-.63.94.11-.5.57-.88,1.24-1.47,1.74-4.44,2.16-8.93,4.2-13.4,6.3-4.17,1.96-8.33,3.93-12.53,5.83-.27.12-.54.27-.85.26h0Z"/>
      <path class="cls-46" d="M317.94,38.98c.99-.05,1.78-.67,2.64-1.06,3.3-1.48,6.54-3.07,9.82-4.6,5.92-2.76,11.87-5.48,17.78-8.28,1.51-.71,3.08-1.31,4.49-2.22.27.06.49.17.56.47-.56.78-1.49.96-2.27,1.35-2.09,1.02-4.23,1.94-6.34,2.92-5.3,2.48-10.58,4.99-15.88,7.48-3.43,1.61-6.87,3.2-10.31,4.8-.27.13-.54.26-.86.2.13-.36.25-.71.38-1.07h-.01Z"/>
      <path class="cls-61" d="M322.09,27.65c.21.24.39.02.55-.06,4.22-1.98,8.43-3.98,12.65-5.96,5.68-2.66,11.36-5.32,17.04-7.98,1.67-.78,3.42-1.4,4.97-2.42.31.11.61.23.92.34-.06.37-.4.42-.66.54-5.17,2.41-10.34,4.82-15.51,7.23-2.71,1.26-5.42,2.52-8.12,3.79-4.11,1.93-8.22,3.87-12.32,5.8.09-.45.24-.88.49-1.28h0Z"/>
      <path class="cls-14" d="M359.12,17.31c-3.13,1.48-6.25,2.96-9.38,4.43-2.27,1.06-4.55,2.11-6.81,3.17-6.08,2.85-12.15,5.71-18.23,8.56-1.89.89-3.79,1.76-5.68,2.64.05-.45.22-.85.42-1.25.79.04,1.43-.42,2.09-.73,3.5-1.61,6.96-3.29,10.45-4.92,5.59-2.62,11.19-5.23,16.78-7.84,2.38-1.11,4.77-2.2,7.14-3.31.28-.13.66-.18.7-.6.28-.24.55-.06.82.02.06-.02.14.16.17,0,.05-.25.07-.5.33-.64.46,0,.89.07,1.2.47h0Z"/>
      <path class="cls-53" d="M320.32,64.8c-.48-.17-.96-.35-1.44-.52-.05-.47.32-.6.64-.75,3.56-1.7,7.13-3.36,10.7-5.03,3.49-1.63,6.98-3.26,10.47-4.9.51-.24,1.02-.5,1.57-.65.27-.07.62-.18.52.35-.58.47-.75,1.27-1.39,1.69-5.2,2.5-10.44,4.93-15.68,7.34-1.79.83-3.54,1.74-5.38,2.47h-.01Z"/>
      <path class="cls-28" d="M340.06,56.57c-.47.73-.95,1.46-1.42,2.19-5.09,2.39-10.19,4.76-15.28,7.15-.66-.24-1.31-.48-1.97-.72-.04-.4.28-.48.54-.61,2.63-1.28,5.29-2.5,7.93-3.74,2.59-1.22,5.21-2.39,7.78-3.64.62-.3,1.25-.57,1.89-.81.19-.07.47-.21.53.19h0Z"/>
      <path class="cls-36" d="M348.33,46.66c-.94.06-1.7.59-2.51.97-5.24,2.44-10.47,4.92-15.7,7.38-3.62,1.7-7.24,3.38-10.86,5.07-1.19.55-2.39,1.08-3.58,1.62-.22.1-.45.19-.56.42-.3-.13-.43-.42-.61-.66.98-.43,1.97-.83,2.94-1.29,4.4-2.07,8.79-4.16,13.19-6.23,5.53-2.6,11.07-5.19,16.62-7.75.72-.33,1.4-.79,2.22-.9-.3.52-.7.97-1.15,1.36h0Z"/>
      <path class="cls-30" d="M342.77,53.3c-.1-.42-.33-.21-.54-.12-1.2.54-2.4,1.06-3.59,1.62-4.38,2.06-8.75,4.14-13.13,6.2-2,.94-4.01,1.86-6.02,2.77-.26.12-.45.28-.6.51-.44-.12-.89-.21-1.27-.5,1.36-.68,2.7-1.38,4.08-2.03,2.11-.99,4.24-1.93,6.35-2.92,5.25-2.46,10.48-4.94,15.73-7.4.19-.09.4-.34.63-.04-.49.68-.99,1.35-1.62,1.91h-.02Z"/>
      <path class="cls-45" d="M352.2,42.07c-1.21.08-2.16.82-3.2,1.29-5.21,2.38-10.38,4.86-15.57,7.3-4.7,2.21-9.41,4.41-14.11,6.61-1.6.75-3.2,1.47-4.8,2.21-.35.16-.71.34-.87.73-.22-.18-.34-.41-.38-.69,1.85-1.09,3.86-1.87,5.78-2.82,2.09-1.03,4.23-1.94,6.34-2.93,5.27-2.47,10.54-4.97,15.81-7.44,3.62-1.7,7.25-3.39,10.88-5.08.33-.15.64-.34,1.02-.26-.3.36-.6.72-.9,1.08Z"/>
      <path class="cls-48" d="M318.55,37.37c1.72-1.15,3.68-1.83,5.53-2.75,2.05-1.02,4.18-1.91,6.26-2.88,5.3-2.48,10.56-5.03,15.88-7.46,4.39-2,8.69-4.21,13.16-6.05.25-.1.44-.39.65-.59.34-.27.57-.13.67.22.1.38-.02.82-.39.9-.61.13-1.02.78-1.72.64-.11-.02-.27.03-.32.13-.28.59-.83.46-1.31.51-.26.11-.49.29-.77.35-.38.56-1.13.54-1.55.88-.56.45-.92.35-1.42.14-.52.57-1.25.8-1.92,1.12-2.11.99-4.24,1.93-6.34,2.92-6.19,2.9-12.37,5.82-18.56,8.73-2.4,1.13-4.82,2.23-7.23,3.35-.24.11-.48.25-.76.23.05-.12.1-.24.16-.37l-.02-.02Z"/>
      <path class="cls-57" d="M337.57,66.11c.45,1.95,1.18,3.79,2.63,5.56-3.1-.49-5.7-1.75-8.39-2.71-.21-.54.23-.67.56-.81,1.44-.63,2.83-1.38,4.27-2,.3-.13.6-.27.92-.04h.01Z"/>
      <path class="cls-56" d="M312.57,57.33c.85-.67,1.85-1.04,2.81-1.49,2.1-1,4.23-1.93,6.34-2.92,5.29-2.48,10.58-4.99,15.87-7.47,4.56-2.14,9.13-4.27,13.7-6.4,1.49-.69,2.98-1.37,4.47-2.05.22-.1.43-.24.65-.02-.1.14-.21.28-.31.42-2.04,1.2-4.23,2.1-6.36,3.1-2.33,1.09-4.66,2.18-6.99,3.26-6.34,2.95-12.68,5.92-19.01,8.89-3.3,1.55-6.63,3.05-9.91,4.65-.38.19-.76.54-1.24.2-.04-.05-.05-.1-.02-.15v-.02Z"/>
      <path class="cls-21" d="M340.06,56.57c-.79-.1-1.38.4-2.02.7-5.45,2.52-10.88,5.07-16.32,7.62-.13.06-.22.19-.32.29-.36-.13-.72-.25-1.08-.38.72-.66,1.64-.96,2.5-1.37,4.59-2.17,9.19-4.31,13.79-6.46,1.33-.62,2.66-1.21,3.99-1.82.25-.11.49-.21.77-.17-.44.53-.87,1.05-1.31,1.58h0Z"/>
      <path class="cls-6" d="M345.86,49.65c-.18-.34-.4-.13-.61-.04-2.63,1.22-5.26,2.44-7.88,3.67-6.08,2.85-12.16,5.72-18.25,8.57-.88.41-1.85.67-2.58,1.37-.22-.06-.41-.16-.54-.36.16-.34.5-.42.79-.55,6.22-2.91,12.44-5.8,18.66-8.71,3.35-1.57,6.7-3.16,10.04-4.74.46-.22.89-.5,1.43-.49-.28.49-.66.9-1.06,1.28h0Z"/>
      <path class="cls-56" d="M312.59,57.49c.38.04.68-.18,1.01-.33,6.16-2.89,12.31-5.79,18.47-8.68,3.62-1.7,7.24-3.39,10.86-5.07,4.22-1.96,8.44-3.92,12.66-5.87.16-.07.34-.1.51-.14-.2.33-.38.68-.76.85-5.98,2.87-12.01,5.64-18.01,8.46-5.47,2.57-10.95,5.12-16.42,7.67-2.49,1.16-4.98,2.35-7.49,3.48-.22.1-.43.22-.68.2-.17-.16-.17-.36-.15-.57Z"/>
      <path class="cls-49" d="M354.46,39.36c-1.11.28-2.15.72-3.15,1.25-1.55.82-3.16,1.49-4.77,2.19-1.06.46-2.12.97-3.13,1.5-1.34.71-2.74,1.3-4.11,1.94-2.28,1.07-4.57,2.13-6.85,3.19-1.45.67-2.91,1.36-4.35,2.06-1.97.96-3.97,1.89-5.95,2.83-2.37,1.12-4.76,2.21-7.15,3.31-.7.33-1.41.64-2.12.96-.04-.13-.07-.26-.11-.39,1.26-.87,2.72-1.36,4.09-2,1.29-.61,2.59-1.22,3.89-1.82,4.27-2.01,8.54-4,12.81-6,5.64-2.65,11.3-5.27,16.95-7.92,1.27-.59,2.5-1.27,3.82-1.75.24-.09.47-.32.73-.05-.2.24-.4.47-.6.71h0Z"/>
      <path class="cls-51" d="M323.37,65.9c.01-.3.26-.38.47-.48,3.05-1.43,6.1-2.87,9.15-4.29,1.62-.76,3.24-1.52,4.87-2.25.23-.11.46-.46.78-.12-.18.42-.36.83-.54,1.25-1.65.91-3.39,1.63-5.09,2.43-2.54,1.19-5.06,2.42-7.63,3.56-.3.13-.61.23-.93.29-.39-.04-.74-.2-1.08-.37v-.02Z"/>
      <path class="cls-49" d="M355.06,38.65c-.72.1-1.35.47-1.99.77-4.27,1.99-8.53,4.02-12.79,6.02-4.7,2.21-9.4,4.4-14.1,6.6-4.35,2.03-8.71,4.05-13.06,6.07-.11.05-.23.06-.34.09-.04-.04-.05-.09-.03-.14,1.26-.94,2.77-1.37,4.15-2.07,2.21-1.11,4.49-2.08,6.74-3.13,6.16-2.89,12.32-5.79,18.48-8.69,3.65-1.71,7.29-3.44,10.96-5.1.72-.33,1.39-.89,2.27-.84-.1.14-.19.27-.29.41h0Z"/>
      <path class="cls-2" d="M324.45,66.28c1.11-.77,2.4-1.19,3.6-1.77,3.14-1.52,6.32-2.95,9.49-4.4.17-.08.33-.3.56-.11-.06.38-.15.75-.35,1.08-.38.6-1.04.78-1.63,1.04-3.15,1.41-6.24,2.95-9.39,4.35-.33.15-.66.27-1.02.29-.42-.16-.85-.33-1.27-.49h.01Z"/>
      <path class="cls-38" d="M325.71,66.76c3.29-1.54,6.58-3.08,9.86-4.63.73-.34,1.45-.7,2.17-1.05-.12.84-.24,1.69-.36,2.53-.07-.05-.12-.12-.16-.2-.11-.54-.41-.45-.79-.27-2.02.97-4.06,1.91-6.09,2.86-1,.47-1.99.95-3.03,1.33-.54-.19-1.07-.38-1.61-.57h0Z"/>
      <path class="cls-17" d="M364.65,18.35c.09.41.25.81.18,1.25-.23.34-.59.49-.95.65-1.96.87-3.88,1.85-5.84,2.71-.24.06-.47.03-.7-.06-.3-.11-.53-.29-.52-.65,0-.3.18-.48.44-.62,1.25-.7,2.51-1.39,3.93-1.68.55-.11.46-.75.89-.94.51.21.95.04,1.39-.23.36-.22.69-.56,1.18-.43Z"/>
      <path class="cls-20" d="M327.32,67.33c.39-.5.99-.65,1.52-.9,2.56-1.21,5.15-2.37,7.7-3.61.84-.41.92-.12.8.6-.86.65-1.88,1.01-2.84,1.47-1.64.78-3.31,1.51-4.94,2.32-.43.21-.89.34-1.35.46-.3-.11-.6-.23-.9-.34h.01Z"/>
      <path class="cls-29" d="M358.04,22.85c1.46-.97,3.14-1.51,4.68-2.32.68-.36,1.4-.62,2.11-.93.04.61.13,1.22-.13,1.81-.35-.24-.66-.06-1,.08-1.5.62-2.91,1.45-4.44,2-.49-.06-1-.07-1.22-.64h0Z"/>
      <path class="cls-41" d="M337.57,66.11c-1.49.39-2.82,1.13-4.17,1.84-.55.29-1.33.25-1.59,1.01l-1.61-.57c.07-.48.51-.55.84-.71,1.8-.81,3.58-1.67,5.36-2.51.31-.14.62-.42,1-.15-.12.38.25.7.16,1.08h.01Z"/>
      <path class="cls-39" d="M337.41,65.03c-1.09.48-2.19.94-3.27,1.44-1.32.62-2.63,1.28-3.94,1.92-.3-.11-.6-.23-.91-.34-.06-.39.26-.51.51-.64,2.25-1.15,4.55-2.2,6.88-3.2.21-.09.44-.22.68-.09.05.3.14.59.03.9h.02Z"/>
      <path class="cls-12" d="M337.37,64.13c-2.33,1.06-4.67,2.09-6.99,3.19-.38.18-.85.31-1.09.73-.36-.13-.72-.25-1.08-.38.68-.35,1.35-.73,2.04-1.06,2.24-1.05,4.49-2.07,6.74-3.11.11-.05.23-.06.34-.09.01.06.03.13.04.19,0,.17,0,.35-.01.52h0Z"/>
      <path class="cls-9" d="M359.3,23.34c1.64-.78,3.27-1.55,4.9-2.33.49-.24.48.09.49.4,0,.31.04.62-.18.88-1.04.85-2.33,1.22-3.52,1.79-.27.13-.52.02-.75-.11-.33-.19-.8-.17-.94-.63Z"/>
      <path class="cls-5" d="M360.37,23.74c.27.33.54.18.84.03,1.1-.51,2.21-.98,3.31-1.47-.1.57-.24,1.12-.55,1.61-.13-.6-.47-.28-.74-.16-.84.38-1.67.78-2.52,1.15-.21.09-.43.4-.7.08-.33-.54.02-.89.35-1.24h0Z"/>
      <path class="cls-46" d="M364.65,18.35c-.55.31-1.09.63-1.64.91-.31.16-.69.38-.83-.21-.26-.57.1-1.13.05-1.69.66-.14,1.23-.68,1.97-.47.24.46.4.95.45,1.46Z"/>
      <path class="cls-60" d="M358.23,14.9c.95-.7,2.18-.91,3.05-1.75.41.1.68.36.91.69.06.36-.24.44-.46.56-.78.41-1.57.82-2.43,1.06-.46,0-.88-.05-1.07-.56Z"/>
      <path class="cls-23" d="M359.28,15.3c.97-.48,2.03-.77,2.9-1.45.23.13.43.3.53.56.22.44-.1.67-.39.84-.5.3-1.01.62-1.6.74-.54-.11-1.16-.04-1.44-.69h0Z"/>
      <path class="cls-33" d="M364.2,16.89c-.69.11-1.24.72-2,.55-.45.22-.51-.08-.51-.4,0-.27.14-.5.28-.72.46-.41.89-.9,1.62-.67.28.38.49.78.61,1.24h0Z"/>
      <path class="cls-19" d="M363.59,15.65c-.53.16-1.04.35-1.43.76-.59.09-1.13.07-1.44-.57.65-.49,1.69-.45,1.99-1.43.37.36.69.75.88,1.24Z"/>
      <path class="cls-55" d="M398.3,42.24c-.2-.16-.37-.3-.55-.43-.19-.15-.23-.05-.38.12-.62.75-.8-.31-1.25-.38-.35-.05-.41-.42-.05-.73.37-.32.45-1.29,1.25-.49.48-.64,1.31.26,1.79-.4.2-.27.36-.07.49.08.14.16.29.2.43.03.65-.75.95.02,1.34.31.55.41.11.67-.15.98-1.49,1.76-2.95,3.54-4.46,5.29-.43.49-.63.82.11,1.2.24.12.7.38.55.68-.2.43-.59.8-.94,1.14-.15.14-.3-.12-.42-.22-1.03-.85-2.04-1.73-3.09-2.55-.89-.69.13-.98.3-1.4.17-.44.53-.28.82.04.51.57.91.83,1.49-.08.64-1.01,1.55-1.85,2.34-2.76.12-.13.23-.27.38-.43h0Z"/>
      <path class="cls-55" d="M320.36,10.44c0,1.17.03,2.33-.01,3.49-.02.61.15.85.8.82.89-.04,1.29.62.97,1.46-.1.27-.3.25-.51.25h-4.13c-.85,0-.48-.64-.55-1.04-.08-.46.05-.79.61-.68,1.07.21,1.22-.33,1.16-1.24-.08-1.16-.01-2.33-.02-3.49,0-.27.13-.63-.37-.65-.38-.02-.47.12-.54.5-.14.79-.81.28-1.22.39-.39.1-.54-.15-.5-.52.05-.53-.27-1.29.74-1.26-.12-.8,1.12-.62,1.04-1.43-.02-.24.25-.18.42-.2s.43.02.42-.21c-.06-.96.64-.6,1.1-.67.48-.07.62.16.61.62-.02,1.28,0,2.57,0,3.85h-.02Z"/>
      <path class="cls-55" d="M360.72,15.84c.48.19.96.38,1.44.57-.02.35-.82.73.05,1.03.25.21.47.42.22.79-.16.24-.28.51-.25.82-.35,1.2-1.26,1.49-2.36,1.46-.21,0-.38.07-.43.25-.11.39-.32.33-.67.4-.6.11-1.41.51-1.63.92-.43.82.57.56.96.78.42.17.79.45,1.26.49.35.13.71.26,1.06.39.04.46-.43.77-.35,1.24-.19.23-.25.66-.71.53-.32-.18-.61-.43-1.02-.37-.56-.23-1.12-.47-1.68-.7-.54-.18-1.08-.36-1.62-.54-.57-.28-1.15-.49-1.77-.59-.19-.16-.37-.31-.56-.47-.09-.58.69-.83.54-1.43.62.05,1.21.03,1.49-.67.81.65.89-.43,1.36-.58.43.26.61-.02.76-.36.29-.22.74.13.8.02.37-.7,1.13-.5,1.61-.81.27-.17.31-.51.78-.33.38.14.47-.27.54-.54.11-.42-.17-.5-.51-.48-.24-.26-.54-.39-.9-.32-.42-.12-.84-.24-1.26-.36-.16.2-.16.49-.36.67-.3-.06-.6-.12-.9-.18-.18-.26-.7-.08-.73-.55.12-.36.24-.72.36-1.08.12-.12.3-.36.36-.33.62.26.95.11,1.1-.57.05-.24.35.1.52-.02.33.19.64.43,1.06.4.44.29.95.38,1.44.54v-.02Z"/>
      <path class="cls-40" d="M357.51,17.63c.06-.25.15-.5.36-.67-.02.27.03.59-.36.67Z"/>
      <path class="cls-37" d="M356.81,19.78c-.02.61-.29.71-.76.36.35.07.54-.18.76-.36Z"/>
    </g>
  </g>
  <g id="back">
    <g>
      <g>
        <path class="cls-26" d="M11.66,68.88v-1.92h-3.84v-1.9h-3.82V18.98h11.51v3.84h1.92v3.84h1.92v3.84h1.92v3.84h1.92v3.84h1.92v3.82h1.92v-3.82h-1.92V15.16h3.82v1.9h3.84v1.92h3.84v46.08h-11.51v-3.82h-1.92v-3.84h-1.92v-3.84h-1.92v-3.84h-1.92v-3.84h-1.92v-3.84h-1.92v3.84h1.92v23.02h-3.84v-.02Z"/>
        <path class="cls-26" d="M19.51,72.88H7.66v-1.92h-3.84v-1.9H0V14.98h19.51v3.84h1.61v-7.66h11.82v1.9h3.84v1.92h3.84v54.08h-19.51v-3.82h-1.61v7.64h0ZM29.12,61.06h3.51V22.98h-3.51v11.22h1.92v11.82h-7.69v3.53h1.92v3.84h1.92v3.84h1.92v3.82h.01ZM8,61.06h3.51v-11.2h-1.92v-11.84h7.69v-3.51h-1.92v-3.84h-1.92v-3.84h-1.92v-3.84h-3.51v38.08h-.01Z"/>
      </g>
      <g>
        <path class="cls-26" d="M50.05,65.06v-1.9h-3.84v-1.92h-1.92v-1.92h-1.92v-3.84h-1.9v-17.27h1.9v-3.84h1.92v-3.84h1.92v-1.92h1.92v-1.92h3.84v-1.92h7.69v1.92h3.84v1.92h1.9v1.92h1.92v1.92h1.92v3.84h1.92v17.27h-1.92v3.84h-1.92v1.92h-1.92v1.92h-1.9v1.92h-3.84v1.9s-9.61,0-9.61,0ZM57.74,53.55v-1.92h1.92v-3.84h1.92v-5.77h-1.92v-3.82h-1.92v-1.92h-1.92v1.92h-1.92v3.82h-1.92v9.61h1.92v1.92s3.84,0,3.84,0Z"/>
        <path class="cls-26" d="M63.66,69.06h-17.61v-1.9h-3.84v-1.92h-1.92v-1.92h-1.92v-3.84h-1.9v-25.27h1.9v-3.84h1.92v-3.84h1.92v-1.92h1.92v-1.92h3.84v-1.92h15.69v1.92h3.84v1.92h1.9v1.92h1.92v1.92h1.92v3.84h1.92v25.27h-1.92v3.84h-1.92v1.92h-1.92v1.92h-1.9v1.92h-3.84s0,1.9,0,1.9ZM54.05,61.06h1.61v-1.9h3.84v-1.61h-9.3v1.61h3.84v1.9h0ZM48.29,57.24h1.61v-1.61h-1.61v1.61ZM46.37,55.31h1.61v-16.96h-1.61v3.84h-1.9v9.27h1.9v3.84h0ZM63.66,53.39h1.59v-1.61h-1.59v1.61ZM65.59,49.55h1.59v-9.27h-1.59v9.27ZM63.66,38.02h1.59v-1.59h-1.59v1.59ZM48.29,38.02h1.61v-3.51h-1.61v3.51ZM50.21,34.2h1.61v-1.61h-1.61v1.61ZM52.13,32.28h7.38v-1.61h-7.38v1.61Z"/>
      </g>
      <g>
        <path class="cls-26" d="M84.6,65.06v-1.9h-3.84v-1.92h-1.92v-1.92h-1.92v-3.84h-1.9v-15.35h1.9v-3.84h1.92v-3.84h1.92v-1.92h1.92v-1.92h1.92v-1.92h3.84v-1.92h3.85v-1.92h9.6v1.92h1.92v1.92h1.92v15.35h-11.51v-5.74h-3.86v1.92h-1.93v3.82h-1.9v9.61h1.9v1.92h7.7v-1.92h3.83v-1.92h1.92v-1.92h3.85v13.45h-1.92v1.92h-3.84v1.9h-15.35l-.02-.02Z"/>
        <path class="cls-26" d="M103.95,69.06h-23.35v-1.9h-3.84v-1.92h-1.92v-1.92h-1.92v-3.84h-1.9v-23.35h1.9v-3.84h1.92v-3.84h1.92v-1.92h1.92v-1.92h1.92v-1.92h3.84v-1.92h3.85v-1.92h17.6v1.92h1.92v1.92h1.92v42.57h-1.92v1.92h-3.84v1.9l-.02-.02ZM88.6,61.06h7.35v-1.9h3.84v-1.61h-15.04v1.61h3.84v1.9h.01ZM100.12,57.24h1.6v-1.61h-1.6v1.61ZM82.84,57.24h1.59v-1.61h-1.59v1.61ZM80.91,55.31h1.61v-15.04h-1.61v3.84h-1.9v7.35h1.9v3.84h0ZM92.42,47.63h3.52v-1.61h-5.42v1.61h1.9ZM98.21,38.02h3.51v-7.35h-1.92v-1.92h-1.92v-1.92h-1.6v1.92h-3.85v1.92h-3.84v1.61h9.62v5.74h0ZM82.83,38.02h1.59v-1.59h-1.59v1.59Z"/>
      </g>
      <g>
        <path class="cls-26" d="M128.73,68.88v-1.92h-3.84v-1.9h-3.82v-24.94h3.82v-1.92h-15.35v-3.84h1.9v-3.84h1.92v-3.84h30.73v3.84h-1.92v3.84h-1.92v3.84h-7.66v30.68h-3.86Z"/>
        <path class="cls-26" d="M136.58,72.88h-11.84v-1.92h-3.84v-1.9h-3.82v-26.86h-11.53v-11.84h1.9v-3.84h1.92v-3.84h38.73v11.84h-1.92v3.84h-1.92v3.84h-7.66v30.68h-.02ZM125.07,61.06h3.51v-16.94h-3.51v16.94ZM128.58,34.2h7.66v-3.53h-18.88v3.53h11.22Z"/>
      </g>
      <g>
        <path class="cls-26" d="M174.81,68.88v-1.92h-3.82v-1.9h-3.84v-3.82h1.92v-1.92h-1.92v1.92h-1.92v1.92h-3.84v1.9h-3.84v1.9h-7.69v-1.9h-1.9V26.67h11.51v26.88h1.92v-1.92h3.84v-1.92h1.92v-26.88h3.84v1.92h3.82v1.92h3.84v42.21h-3.84Z"/>
        <path class="cls-26" d="M182.66,72.88h-11.84v-1.92h-3.82v-1.9h-5.45v1.9h-15.69v-1.9h-1.9V22.67h19.2v-3.84h11.84v1.92h3.82v1.92h3.84v50.21ZM173.07,61.06h1.59v-30.39h-3.51v23.04h-1.92v1.61h3.84v5.74ZM153.85,61.06h3.53v-1.9h3.84v-1.61h-5.77v-26.88h-3.51v30.39h1.91Z"/>
      </g>
      <g>
        <path class="cls-26" d="M193.98,68.88v-1.92h-3.84v-1.9h-3.82v-30.7h3.82v-1.92h-7.64v-3.84h1.9v-3.84h1.92v-3.84h11.51v1.92h5.79v1.92h3.82v1.92h1.92v1.92h1.92v1.92h1.92v3.84h1.92v7.66h-1.92v3.84h-1.92v1.92h-1.92v1.92h-1.92v1.92h1.92v1.92h1.92v1.92h1.92v1.92h1.92v1.92h1.92v1.92h-1.92v1.92h-1.92v1.9h-1.92v1.9h-3.84v-1.9h-1.9v-1.9h-1.92v-1.92h-1.93v-1.92h-1.93v-1.92h-1.93v-1.92h-1.92v1.92h1.92v11.48h-3.84v.02ZM201.69,42.02v-1.9h1.93v-3.84h-1.93v-1.92h-3.86v7.66h3.86Z"/>
        <path class="cls-26" d="M201.83,72.88h-11.84v-1.92h-3.84v-1.9h-3.82v-32.62h-3.82v-11.84h1.9v-3.84h1.92v-3.84h19.51v1.92h5.79v1.92h3.82v1.92h1.92v1.92h1.92v1.92h1.92v3.84h1.92v15.66h-1.92v3.84h-1.92v1.61h1.92v1.92h1.92v1.92h1.92v9.92h-1.92v1.92h-1.92v1.9h-1.92v1.9h-11.84v-1.9h-1.61v3.82h0ZM190.32,61.06h1.59v-9.59h9.92v1.92h1.61v-7.38h-9.61v-7.66h-3.51v22.7h0ZM207.62,41.86h1.59v-7.35h-1.59v7.35ZM194.14,30.35h9.3v-1.61h-3.82v-1.92h-5.79v-1.92h-3.51v3.53h3.82v1.92h0Z"/>
      </g>
      <g>
        <path class="cls-26" d="M228.55,68.88v-1.92h-3.84v-1.9h-3.82V26.67h11.51v3.84h1.92v3.84h1.92v3.84h1.92v3.82h1.92v-3.82h-1.92v-15.38h3.84v1.92h3.82v1.92h3.84v38.39h-11.51v-3.82h-1.92v-3.84h-1.92v-3.84h-1.92v-3.84h-1.92v3.84h1.92v15.33h-3.84Z"/>
        <path class="cls-26" d="M236.4,72.88h-11.84v-1.92h-3.84v-1.9h-3.82V22.67h17.27v-3.84h11.84v1.92h3.82v1.92h3.84v46.39h-17.27v3.82ZM242.16,61.06h3.51v-30.39h-3.51v3.53h1.92v11.82h-7.69v3.53h1.92v3.84h1.92v3.84h1.92v3.82h.01ZM224.89,61.06h3.51v-3.51h-1.92v-11.84h7.69v-3.51h-1.92v-3.84h-1.92v-3.84h-1.92v-3.84h-3.51v30.39h-.01Z"/>
      </g>
      <g>
        <path class="cls-26" d="M261.18,68.88v-1.92h-3.84v-1.9h-3.82V26.67h11.51v5.77h1.92v-7.69h-5.77v-3.84h11.53v5.77h1.92v7.69h1.92v7.66h1.9v7.69h1.92v7.69h1.92v7.66h-9.59v-3.82h-7.69v7.64h-3.84,0ZM268.87,51.65v-3.84h-1.92v-5.77h-1.92v9.61h3.84Z"/>
        <path class="cls-26" d="M269.02,72.88h-11.84v-1.92h-3.84v-1.9h-3.82V22.67h7.66v-5.77h19.53v5.77h1.92v7.69h1.92v7.66h1.9v7.69h1.92v7.69h1.92v15.66h-17.27v3.82h0ZM257.52,61.06h3.51v-3.82h15.35v-3.53h-1.92v-7.69h-1.59v9.63h-11.84v-17.61h9.61v-1.61h-9.61v-5.77h-3.51v30.39h0ZM270.95,43.81h1.61v-5.45h-1.61v5.45Z"/>
      </g>
      <g>
        <path class="cls-26" d="M286.14,65.06V22.82h3.82v1.92h3.84v1.92h3.84v28.8h15.35v9.59h-26.86.01Z"/>
        <path class="cls-26" d="M317,69.06h-34.86V18.82h11.82v1.92h3.84v1.92h3.84v28.8h15.35v17.59h0ZM290.14,61.06h18.86v-1.59h-15.35v-28.8h-3.51v30.39h0Z"/>
      </g>
      <g>
        <path class="cls-26" d="M12.61,151.46v-2.85H4v-5.77h2.85v-5.77h2.88v-5.77h8.65v2.88h17.3v-2.88h-2.88v-2.88h-8.65v-2.88h-5.77v-2.88h-5.77v-2.88h-2.88v-2.88h-2.88v-2.85h-2.85v-17.3h2.85v-5.77h2.88v-2.88h2.88v-2.88h2.88v-2.88h5.77v-2.88h5.77v-2.85h17.26v2.85h2.88v2.88h2.88v23.06h-17.26v-11.53h-2.88v2.88h-2.88v2.88h-2.88v2.88h-2.88v5.77h2.88v2.88h5.77v2.88h11.5v2.85h5.77v2.88h2.88v2.88h2.88v14.41h-2.88v5.77h-2.88v2.88h-2.88v2.88h-5.73v2.85H12.61v.02Z"/>
        <path class="cls-26" d="M42.56,155.46H8.61v-2.85H0v-13.77h2.85v-5.77h2.88v-5.77h8.65v-.65h-5.77v-2.88h-2.88v-2.88h-2.88v-2.85H0v-25.3h2.85v-5.77h2.88v-2.88h2.88v-2.88h2.88v-2.88h5.77v-2.88h5.77v-2.85h25.26v2.85h2.88v2.88h2.88v31.06h-20.14v.65h11.5v2.85h5.77v2.88h2.88v2.88h2.88v22.41h-2.88v5.77h-2.88v2.88h-2.88v2.88h-5.73v2.87ZM16.61,147.46h17.95v-2.85h5.73v-2.88h2.88v-2.88h2.88v-5.77h2.88v-6.41h-2.88v-2.88h-2.88v-2.88h-5.77v-2.85h-11.5v-2.88h-5.77v-2.88h-2.88v-13.77h2.88v-2.88h2.88v-2.88h2.88v-2.88h10.88v11.53h9.26v-15.06h-2.88v-2.88h-2.88v-2.85h-9.26v2.85h-5.77v2.88h-5.77v2.88h-2.88v2.88h-2.88v2.88h-2.88v5.77h-2.85v9.3h2.85v2.85h2.88v2.88h2.88v2.88h5.77v2.88h5.77v2.88h8.65v2.88h2.88v10.88H14.38v-2.88h-.65v5.77h-2.88v3.53h5.77v2.85h-.01ZM28.14,107.17h.65v-3.53h-.65v3.53Z"/>
      </g>
      <g>
        <path class="cls-26" d="M70.2,157.19v-2.88h-5.77v-2.85h-5.73v-57.59h17.26v17.3h-2.88v5.73h2.88v-5.73h2.88v-5.77h2.88v-5.77h2.88v-5.77h17.26v5.77h-2.88v5.77h-2.88v5.77h-2.88v5.73h-2.88v5.77h-2.88v2.88h2.88v2.88h2.88v2.88h2.88v2.88h2.88v2.88h2.88v2.88h2.88v2.88h-2.88v2.88h-2.88v2.88h-2.88v2.85h-5.73v-2.85h-2.88v-2.88h-2.88v-2.88h-2.88v-2.88h-2.88v-2.88h-2.88v-2.88h-2.88v2.88h2.88v20.11h-5.77Z"/>
        <path class="cls-26" d="M79.96,161.19h-13.77v-2.88h-5.77v-2.85h-5.73v-65.59h25.26v5.77h.65v-5.77h25.26v13.77h-2.88v5.77h-2.88v5.77h-2.88v5.73h-2.88v3.53h2.88v2.88h2.88v2.88h2.88v2.88h2.88v2.88h2.88v10.88h-2.88v2.88h-2.88v2.88h-2.88v2.85h-13.73v-2.85h-2.88v-2.88h-2.88v-2.88h-.65v14.34h0ZM68.43,150.31h3.53v-9.23h-2.88v-10.88h10.88v2.88h2.88v2.88h2.88v2.88h2.88v2.88h2.88v2.88h3.5v-2.88h2.88v-.65h-2.88v-2.88h-2.88v-2.88h-2.88v-2.88h-2.88v-2.88h-2.88v-10.88h2.88v-5.77h2.88v-5.73h2.88v-5.77h2.88v-3.53h-6.38v5.77h-2.88v5.77h-2.88v5.77h-2.88v5.73h-10.88v-13.73h2.88v-9.3h-9.26v49.59h5.73v2.85h0Z"/>
      </g>
      <g>
        <path class="cls-26" d="M122.02,157.19v-2.88h-5.77v-2.85h-5.73v-63.35h5.73v2.88h5.77v2.88h5.77v63.32h-5.77Z"/>
        <path class="cls-26" d="M131.79,161.19h-13.77v-2.88h-5.77v-2.85h-5.73v-71.35h13.73v2.88h5.77v2.88h5.77v71.32h0ZM120.25,150.31h3.53v-52.43h-5.77v-2.88h-3.5v52.47h5.73v2.85h0Z"/>
      </g>
      <g>
        <path class="cls-26" d="M150.78,157.19v-2.88h-5.77v-2.85h-5.73v-46.05h5.73v-2.88h-11.46v-5.77h2.85v-5.77h2.88v-5.77h17.26v2.88h8.68v2.88h5.73v2.88h2.88v2.88h2.88v2.88h2.88v5.77h2.88v11.5h-2.88v5.77h-2.88v2.88h-2.88v2.88h-2.88v2.88h2.88v2.88h2.88v2.88h2.88v2.88h2.88v2.88h2.88v2.88h-2.88v2.88h-2.88v2.85h-2.88v2.85h-5.77v-2.85h-2.85v-2.85h-2.88v-2.88h-2.89v-2.88h-2.89v-2.88h-2.89v-2.88h-2.88v2.88h2.88v17.23h-5.77v.02ZM162.33,116.9v-2.85h2.89v-5.77h-2.89v-2.88h-5.79v11.5s5.79,0,5.79,0Z"/>
        <path class="cls-26" d="M160.54,161.19h-13.77v-2.88h-5.77v-2.85h-5.73v-48.94h-5.73v-13.77h2.85v-5.77h2.88v-5.77h25.26v2.88h8.68v2.88h5.73v2.88h2.88v2.88h2.88v2.88h2.88v5.77h2.88v19.5h-2.88v5.77h-2.88v2.88h-2.88v.65h2.88v2.88h2.88v2.88h2.88v2.88h2.88v10.88h-2.88v2.88h-2.88v2.85h-2.88v2.85h-13.77v-2.85h-2.85v-2.85h-2.88v-2.88h-.68v11.46l.02.03ZM149.01,150.31h3.53v-6.34h-2.88v-10.88h10.88v2.88h2.89v2.88h2.89v2.88h2.89v2.88h2.88v2.85h3.5v-2.85h2.88v-.65h-2.88v-2.88h-2.88v-2.88h-2.88v-2.88h-2.88v-10.88h2.88v-2.88h2.88v-2.88h2.88v-5.77h2.88v-3.5h-2.88v-5.77h-2.88v-2.88h-2.88v-2.88h-2.88v-2.88h-5.73v-2.88h-8.68v-2.88h-9.26v5.77h-2.88v3.53h8.61v10.88h-5.73v38.05h5.73v2.85h0ZM166.33,120.9h-13.79v-19.5h13.79v2.88h2.89v13.77h-2.89v2.85Z"/>
      </g>
      <g>
        <path class="cls-26" d="M202.63,157.19v-2.88h-5.77v-2.85h-5.73v-57.59h17.26v5.77h2.88v5.77h2.88v5.77h2.88v5.73h2.88v5.77h2.88v-5.77h2.88v-5.73h2.85v-5.77h2.88v-5.77h2.88v-5.77h17.26v63.32h-5.75v-2.88h-5.75v-2.85h-5.75v-17.26h2.85v-5.77h-2.85v5.77h-2.88v5.77h-2.88v5.77h-2.85v5.73h-8.65v-5.73h-2.88v-5.77h-2.88v-5.77h-2.88v-5.77h-2.88v5.77h2.88v22.99h-5.77,0Z"/>
        <path class="cls-26" d="M255.57,161.19h-13.75v-2.88h-5.75v-2.85h-5.75v-5.73h-.61v5.73h-16.65v-5.73h-.65v11.46h-13.77v-2.88h-5.77v-2.85h-5.73v-65.59h25.26v5.77h2.88v5.77h2.88v5.77h2.88v5.73h.65v-5.73h2.85v-5.77h2.88v-5.77h2.88v-5.77h25.26v71.32h0ZM244.06,150.31h3.51v-52.43h-9.26v5.77h-2.88v5.77h-2.88v5.77h-2.85v5.73h-2.88v5.77h-10.88v-5.77h-2.88v-5.73h-2.88v-5.77h-2.88v-5.77h-2.88v-5.77h-9.26v49.59h5.73v2.85h3.53v-12.11h-2.88v-13.77h10.88v5.77h2.88v5.77h2.88v5.77h2.88v5.73h.65v-5.73h2.85v-5.77h2.88v-5.77h2.88v-5.77h10.85v13.77h-2.85v9.26h5.75v2.85h0Z"/>
      </g>
      <g>
        <path class="cls-26" d="M268.87,157.19v-2.88h-5.77v-2.85h-5.73v-63.35h5.73v2.88h5.77v2.88h5.77v63.32h-5.77Z"/>
        <path class="cls-26" d="M278.63,161.19h-13.77v-2.88h-5.77v-2.85h-5.73v-71.35h13.73v2.88h5.77v2.88h5.77v71.32h0ZM267.1,150.31h3.53v-52.43h-5.77v-2.88h-3.5v52.47h5.73v2.85h0Z"/>
      </g>
      <g>
        <path class="cls-26" d="M283.25,151.46v-14.38h25.95v-2.88h-5.77v-2.88h-8.65v-2.88h-5.77v-2.88h-2.88v-2.88h-2.88v-5.75h-2.85v-11.51h2.85v-5.77h2.88v-2.89h2.88v-2.89h5.77v-2.88h5.77v-2.88h17.26v2.88h2.88v2.88h2.88v17.3h-17.26v-5.77h-2.88v2.88h-2.88v2.88h-2.88v2.9h2.88v2.87h5.77v2.88h8.65v2.88h5.73v2.88h2.88v2.88h2.88v11.52h-2.88v5.76h-2.88v2.88h-5.73v2.84h-31.72Z"/>
        <path class="cls-26" d="M318.96,155.46h-39.71v-22.38h11.53v-.64h-5.77v-2.88h-2.88v-2.88h-2.88v-5.75h-2.85v-19.51h2.85v-5.77h2.88v-2.89h2.88v-2.89h5.77v-2.88h5.77v-2.88h25.26v2.88h2.88v2.88h2.88v25.3h-17.26v.65h8.65v2.88h5.73v2.88h2.88v2.88h2.88v19.52h-2.88v5.76h-2.88v2.88h-5.73v2.84h0ZM287.25,147.46h23.71v-2.84h5.73v-2.88h2.88v-5.76h2.88v-3.52h-2.88v-2.88h-2.88v-2.88h-5.73v-2.88h-8.65v-2.88h-5.77v-2.87h-2.88v-10.9h2.88v-2.88h2.88v-2.88h10.88v5.77h9.26v-9.3h-2.88v-2.88h-2.88v-2.88h-9.26v2.88h-5.77v2.88h-5.77v2.89h-2.88v2.89h-2.88v5.77h-2.85v3.51h2.85v5.75h2.88v2.88h2.88v2.88h5.77v2.88h8.65v2.88h5.77v10.88h-25.95v6.38h.01Z"/>
      </g>
      <g>
        <path class="cls-26" d="M343.71,157.19v-2.88h-5.77v-2.85h-5.73v-63.35h5.73v2.88h5.77v2.88h5.77v25.91h5.77v-2.88h5.77v-28.79h5.77v2.88h5.73v2.88h5.77v63.32h-5.77v-2.88h-5.73v-2.85h-5.77v-17.26h2.88v-2.88h-2.88v2.88h-5.77v2.88h-5.77v20.11h-5.77Z"/>
        <path class="cls-26" d="M382.27,161.19h-13.77v-2.88h-5.73v-2.85h-5.77v-14.38h-3.53v20.11h-13.77v-2.88h-5.77v-2.85h-5.73v-71.35h13.73v2.88h5.77v2.88h5.77v23.03h3.53v-28.79h13.77v2.88h5.73v2.88h5.77v71.32h0ZM370.78,150.31h3.5v-52.43h-5.77v-2.88h-3.5v25.91h-5.77v2.88h-13.77v-25.91h-5.77v-2.88h-3.5v52.47h5.73v2.85h3.53v-17.23h5.77v-2.88h5.77v-2.88h10.88v10.88h-2.88v9.26h5.77v2.85h0Z"/>
      </g>
    </g>
  </g>
  <g id="front">
    <g>
      <path class="cls-34" d="M11.66,68.86v-1.92h-3.84v-1.9h-3.82V18.96h11.51v3.84h1.92v3.84h1.92v3.84h1.92v3.84h1.92v3.84h1.92v3.82h1.92v-3.82h-1.92V15.14h3.82v1.9h3.84v1.92h3.84v46.08h-11.51v-3.82h-1.92v-3.84h-1.92v-3.84h-1.92v-3.84h-1.92v-3.84h-1.92v-3.84h-1.92v3.84h1.92v23.02h-3.84v-.02Z"/>
      <path class="cls-34" d="M50.05,65.04v-1.9h-3.84v-1.92h-1.92v-1.92h-1.92v-3.84h-1.9v-17.27h1.9v-3.84h1.92v-3.84h1.92v-1.92h1.92v-1.92h3.84v-1.92h7.69v1.92h3.84v1.92h1.9v1.92h1.92v1.92h1.92v3.84h1.92v17.27h-1.92v3.84h-1.92v1.92h-1.92v1.92h-1.9v1.92h-3.84v1.9s-9.61,0-9.61,0ZM57.74,53.53v-1.92h1.92v-3.84h1.92v-5.77h-1.92v-3.82h-1.92v-1.92h-1.92v1.92h-1.92v3.82h-1.92v9.61h1.92v1.92s3.84,0,3.84,0Z"/>
      <path class="cls-34" d="M84.6,65.04v-1.9h-3.84v-1.92h-1.92v-1.92h-1.92v-3.84h-1.9v-15.35h1.9v-3.84h1.92v-3.84h1.92v-1.92h1.92v-1.92h1.92v-1.92h3.84v-1.92h3.85v-1.92h9.6v1.92h1.92v1.92h1.92v15.35h-11.51v-5.74h-3.86v1.92h-1.93v3.82h-1.9v9.61h1.9v1.92h7.7v-1.92h3.83v-1.92h1.92v-1.92h3.85v13.45h-1.92v1.92h-3.84v1.9h-15.35l-.02-.02Z"/>
      <path class="cls-34" d="M128.73,68.86v-1.92h-3.84v-1.9h-3.82v-24.94h3.82v-1.92h-15.35v-3.84h1.9v-3.84h1.92v-3.84h30.73v3.84h-1.92v3.84h-1.92v3.84h-7.66v30.68h-3.86Z"/>
      <path class="cls-34" d="M174.81,68.86v-1.92h-3.82v-1.9h-3.84v-3.82h1.92v-1.92h-1.92v1.92h-1.92v1.92h-3.84v1.9h-3.84v1.9h-7.69v-1.9h-1.9V26.65h11.51v26.88h1.92v-1.92h3.84v-1.92h1.92v-26.88h3.84v1.92h3.82v1.92h3.84v42.21h-3.84Z"/>
      <path class="cls-34" d="M193.98,68.86v-1.92h-3.84v-1.9h-3.82v-30.7h3.82v-1.92h-7.64v-3.84h1.9v-3.84h1.92v-3.84h11.51v1.92h5.79v1.92h3.82v1.92h1.92v1.92h1.92v1.92h1.92v3.84h1.92v7.66h-1.92v3.84h-1.92v1.92h-1.92v1.92h-1.92v1.92h1.92v1.92h1.92v1.92h1.92v1.92h1.92v1.92h1.92v1.92h-1.92v1.92h-1.92v1.9h-1.92v1.9h-3.84v-1.9h-1.9v-1.9h-1.92v-1.92h-1.93v-1.92h-1.93v-1.92h-1.93v-1.92h-1.92v1.92h1.92v11.48h-3.84v.02ZM201.69,42v-1.9h1.93v-3.84h-1.93v-1.92h-3.86v7.66h3.86Z"/>
      <path class="cls-34" d="M228.55,68.86v-1.92h-3.84v-1.9h-3.82V26.65h11.51v3.84h1.92v3.84h1.92v3.84h1.92v3.82h1.92v-3.82h-1.92v-15.38h3.84v1.92h3.82v1.92h3.84v38.39h-11.51v-3.82h-1.92v-3.84h-1.92v-3.84h-1.92v-3.84h-1.92v3.84h1.92v15.33h-3.84Z"/>
      <path class="cls-34" d="M261.18,68.86v-1.92h-3.84v-1.9h-3.82V26.65h11.51v5.77h1.92v-7.69h-5.77v-3.84h11.53v5.77h1.92v7.69h1.92v7.66h1.9v7.69h1.92v7.69h1.92v7.66h-9.59v-3.82h-7.69v7.64h-3.84,0ZM268.87,51.63v-3.84h-1.92v-5.77h-1.92v9.61h3.84Z"/>
      <path class="cls-34" d="M286.14,65.04V22.8h3.82v1.92h3.84v1.92h3.84v28.8h15.35v9.59h-26.86.01Z"/>
      <path class="cls-34" d="M12.61,151.44v-2.85H4v-5.77h2.85v-5.77h2.88v-5.77h8.65v2.88h17.3v-2.88h-2.88v-2.88h-8.65v-2.88h-5.77v-2.88h-5.77v-2.88h-2.88v-2.88h-2.88v-2.85h-2.85v-17.3h2.85v-5.77h2.88v-2.88h2.88v-2.88h2.88v-2.88h5.77v-2.88h5.77v-2.85h17.26v2.85h2.88v2.88h2.88v23.06h-17.26v-11.53h-2.88v2.88h-2.88v2.88h-2.88v2.88h-2.88v5.77h2.88v2.88h5.77v2.88h11.5v2.85h5.77v2.88h2.88v2.88h2.88v14.41h-2.88v5.77h-2.88v2.88h-2.88v2.88h-5.73v2.85H12.61v.02Z"/>
      <path class="cls-34" d="M70.2,157.17v-2.88h-5.77v-2.85h-5.73v-57.59h17.26v17.3h-2.88v5.73h2.88v-5.73h2.88v-5.77h2.88v-5.77h2.88v-5.77h17.26v5.77h-2.88v5.77h-2.88v5.77h-2.88v5.73h-2.88v5.77h-2.88v2.88h2.88v2.88h2.88v2.88h2.88v2.88h2.88v2.88h2.88v2.88h2.88v2.88h-2.88v2.88h-2.88v2.88h-2.88v2.85h-5.73v-2.85h-2.88v-2.88h-2.88v-2.88h-2.88v-2.88h-2.88v-2.88h-2.88v-2.88h-2.88v2.88h2.88v20.11h-5.77Z"/>
      <path class="cls-34" d="M122.02,157.17v-2.88h-5.77v-2.85h-5.73v-63.35h5.73v2.88h5.77v2.88h5.77v63.32h-5.77Z"/>
      <path class="cls-34" d="M150.78,157.17v-2.88h-5.77v-2.85h-5.73v-46.05h5.73v-2.88h-11.46v-5.77h2.85v-5.77h2.88v-5.77h17.26v2.88h8.68v2.88h5.73v2.88h2.88v2.88h2.88v2.88h2.88v5.77h2.88v11.5h-2.88v5.77h-2.88v2.88h-2.88v2.88h-2.88v2.88h2.88v2.88h2.88v2.88h2.88v2.88h2.88v2.88h2.88v2.88h-2.88v2.88h-2.88v2.85h-2.88v2.85h-5.77v-2.85h-2.85v-2.85h-2.88v-2.88h-2.89v-2.88h-2.89v-2.88h-2.89v-2.88h-2.88v2.88h2.88v17.23h-5.77v.02ZM162.33,116.88v-2.85h2.89v-5.77h-2.89v-2.88h-5.79v11.5s5.79,0,5.79,0Z"/>
      <path class="cls-34" d="M202.63,157.17v-2.88h-5.77v-2.85h-5.73v-57.59h17.26v5.77h2.88v5.77h2.88v5.77h2.88v5.73h2.88v5.77h2.88v-5.77h2.88v-5.73h2.85v-5.77h2.88v-5.77h2.88v-5.77h17.26v63.32h-5.75v-2.88h-5.75v-2.85h-5.75v-17.26h2.85v-5.77h-2.85v5.77h-2.88v5.77h-2.88v5.77h-2.85v5.73h-8.65v-5.73h-2.88v-5.77h-2.88v-5.77h-2.88v-5.77h-2.88v5.77h2.88v22.99h-5.77,0Z"/>
      <path class="cls-34" d="M268.87,157.17v-2.88h-5.77v-2.85h-5.73v-63.35h5.73v2.88h5.77v2.88h5.77v63.32h-5.77Z"/>
      <path class="cls-34" d="M283.25,151.44v-14.38h25.95v-2.88h-5.77v-2.88h-8.65v-2.88h-5.77v-2.88h-2.88v-2.88h-2.88v-5.75h-2.85v-11.51h2.85v-5.77h2.88v-2.89h2.88v-2.89h5.77v-2.88h5.77v-2.88h17.26v2.88h2.88v2.88h2.88v17.3h-17.26v-5.77h-2.88v2.88h-2.88v2.88h-2.88v2.9h2.88v2.87h5.77v2.88h8.65v2.88h5.73v2.88h2.88v2.88h2.88v11.52h-2.88v5.76h-2.88v2.88h-5.73v2.84h-31.72Z"/>
      <path class="cls-34" d="M343.72,157.17v-2.88h-5.77v-2.85h-5.73v-63.35h5.73v2.88h5.77v2.88h5.77v25.91h5.77v-2.88h5.77v-28.79h5.77v2.88h5.73v2.88h5.77v63.32h-5.77v-2.88h-5.73v-2.85h-5.77v-17.26h2.88v-2.88h-2.88v2.88h-5.77v2.88h-5.77v20.11h-5.77Z"/>
    </g>
  </g>
</svg>