<?xml version="1.0" encoding="UTF-8"?>
<svg id="Layer_1" xmlns="http://www.w3.org/2000/svg" viewBox="0 0 391.98 392.09">
  <path d="M.24,206.03c0-6.56,0-13.11,0-19.67.21-2.54.41-5.09.62-7.63.82-10.09,2.5-20.04,4.98-29.85,9.41-37.2,28.1-68.99,55.97-95.33,21.79-20.6,47.05-35.37,75.65-44.39,15.19-4.79,30.74-7.65,46.65-8.57,2.03-.12,4.07,0,6.09-.34h11.51c2.06.34,4.14.23,6.21.35,7.79.45,15.51,1.39,23.17,2.79,19.28,3.51,37.62,9.78,55.01,18.83,19.28,10.04,36.43,22.92,51.46,38.62,15.65,16.36,28.13,34.87,37.38,55.53,10.82,24.16,16.36,49.51,16.99,75.96.15,6.44-.14,12.86-.62,19.27-.6,8.06-1.72,16.04-3.36,23.94-7.77,37.33-25,69.68-51.46,97.07-18.13,18.77-39.27,33.29-63.25,43.63-22.03,9.5-45.06,14.69-69.01,15.7-6.22.26-12.46.21-18.7-.12-6.63-.35-13.22-1.01-19.77-2.03-19.85-3.1-38.78-9.1-56.76-18.06-21.11-10.52-39.77-24.36-55.87-41.6-24.07-25.77-40.17-55.84-48.15-90.21-2.03-8.72-3.44-17.55-4.14-26.48-.19-2.47-.41-4.93-.61-7.39ZM368.95,231.76c3.64-17.66,4.53-35.44,2.73-53.34-2.51-24.92-10-48.27-22.5-69.98-13.55-23.53-31.55-42.97-53.97-58.26C226.27,3.19,133.3,10.73,72.69,69.91c-14.14,13.8-25.66,29.54-34.54,47.2-8.86,17.61-14.61,36.19-17.18,55.74-2.56,19.52-1.95,38.94,1.97,58.39.27-.22.35-.26.39-.32.13-.24.26-.5.38-.75,7.26-14.98,18.02-26.76,32.37-35.23,2.41-1.42,4.91-2.67,7.4-3.96,1.07-.55,1.09-.85.19-1.65-.72-.64-1.48-1.22-2.21-1.84-16.7-13.97-23.54-31.84-20.66-53.32,1.74-12.97,7.62-24.04,17.23-32.91,15.2-14.02,33.11-19.08,53.22-14.26,32.12,7.7,50.07,39.41,42.18,71.01-2.77,11.09-9.06,20.08-17.42,27.71-1.36,1.24-2.8,2.38-4.18,3.6-.91.8-.87,1.02.2,1.64.17.1.34.2.52.29,7.24,3.58,13.96,7.94,20.02,13.29.61.54,1.02.56,1.57-.09,1.34-1.59,2.85-3.03,4.43-4.38,13.42-11.54,28.94-16.33,46.48-13.93,13.07,1.79,24.19,7.68,33.37,17.16.73.76,1.15.77,1.93.09,4.54-3.95,9.52-7.28,14.81-10.13,1.48-.79,2.98-1.54,4.48-2.3.88-.45.99-.98.2-1.63-.59-.48-1.18-.95-1.77-1.44-17.65-14.61-24.75-33.34-20.77-55.8,5.98-33.76,41.5-54.69,74.09-44.06,25.23,8.23,42.07,31.8,39.8,60.61-.82,10.38-4.49,19.72-10.76,28.04-3.46,4.59-7.52,8.6-11.98,12.21-1.56,1.26-1.52,1.46.31,2.39,1.39.71,2.77,1.43,4.13,2.18,15.77,8.76,27.88,20.99,35.41,37.53.12.27.15.64.68.76ZM97.94,200.76c-3.33-.08-6.65.07-9.93.61-19.68,3.28-34.94,13.33-45.6,30.18-5.42,8.56-8.44,17.98-9.16,28.08-.13,1.82-.57,3.72.23,5.55,16.83,38.51,43.8,67.63,80.82,87.48,1.18.63,1.26.58,1.51-.74,4.94-25.35,18.42-44.65,40.82-57.63,1.93-1.12,3.95-2.1,5.94-3.12.89-.46,1.02-.94.22-1.6-.43-.35-.86-.72-1.29-1.07-12.78-10.37-20.71-23.4-22.04-40.07-.75-9.31.32-18.35,3.92-27,.51-1.22.28-1.94-.64-2.8-12.62-11.78-27.48-17.92-44.81-17.89ZM293.66,200.78c-3.35-.11-7.05.15-10.72.79-12.62,2.18-23.65,7.61-33.11,16.24-.62.57-.79,1.07-.44,1.87,2.76,6.24,4.25,12.77,4.75,19.57.62,8.34-.35,16.43-3.32,24.25-3.87,10.18-10.52,18.28-18.84,25.12-2.28,1.87-2.28,1.85.3,3.16,10.89,5.53,20.5,12.7,28.28,22.19,8.91,10.88,14.23,23.42,17.02,37.11.29,1.43.36,1.47,1.57.81,14.85-7.98,28.31-17.85,40.34-29.66,16.17-15.86,28.85-34.14,38.07-54.82.68-1.52,1.19-2.98,1.03-4.8-.37-4.06-.72-8.11-1.63-12.09-6.85-29.78-33.92-50.31-63.28-49.75ZM197.57,372.7c3.34.12,8.25-.17,13.14-.57,8.73-.72,17.36-2.08,25.88-4.11,8.02-1.91,15.87-4.36,23.55-7.34.89-.35,1.3-.77,1.06-1.77-.19-.81-.18-1.67-.3-2.49-2.44-16.82-10.23-30.66-23.44-41.3-12.89-10.39-27.74-14.96-44.29-14.09-5.66.29-11.18,1.29-16.56,3.04-25.2,8.23-42.36,30.9-44.27,55.07-.11,1.39.3,1.88,1.49,2.32,20.04,7.49,40.74,11.28,63.73,11.24ZM97.72,183.19c20.65.21,40.27-15.58,40.32-40.52.05-23.69-19.18-40.08-40.11-40.09-22.8-.02-40.48,18.16-40.58,40.51-.1,22.5,18.87,40.37,40.37,40.11ZM196.78,283.45c22.6.04,40.29-17.65,40.36-40.3.08-24.1-19.52-40.28-40.11-40.37-22.5-.11-40.52,18.01-40.56,40.63-.04,22.08,18.01,40.01,40.31,40.04ZM334.1,142.79c.33-22.76-18.3-40.12-39.97-40.22-22.8-.1-40.93,18.3-40.65,41.16.26,21.37,18.17,39.24,39.71,39.5,21.93.27,41.04-16.61,40.9-40.45Z"/>
</svg>