<?xml version="1.0" encoding="UTF-8"?>
<svg id="Layer_1" xmlns="http://www.w3.org/2000/svg" viewBox="0 0 53.7 55.7">
  <defs>
    <style>
      .cls-1 {
        fill: #fff;
      }
    </style>
  </defs>
  <g id="Layer_1-2" data-name="Layer_1">
    <g>
      <circle class="cls-1" cx="24" cy="12.7" r="11.1"/>
      <path class="cls-1" d="M24,25.3c-7,0-12.6-5.7-12.6-12.6S17.1,0,24,0s12.6,5.7,12.6,12.6-5.7,12.6-12.6,12.6v.1ZM24,3c-5.3,0-9.6,4.3-9.6,9.6s4.3,9.6,9.6,9.6,9.6-4.3,9.6-9.6S29.3,3,24,3Z"/>
    </g>
    <path class="cls-1" d="M24.7,42.3c0-5.9,3.6-11,8.7-13.2-3-1.1-6.6-1.7-9.3-1.7C10.8,27.4,0,38.2,0,51.5v1.5h29.4c-2.9-2.6-4.7-6.4-4.7-10.6v-.1Z"/>
    <path class="cls-1" d="M40.3,28.9c-7.4,0-13.4,6-13.4,13.4s6,13.4,13.4,13.4,13.4-6,13.4-13.4-6-13.4-13.4-13.4ZM47.8,44.7h-5.5v5.5h-3v-5.5h-5.5v-3h5.5v-5.5h3v5.5h5.5v3Z"/>
  </g>
</svg>