<?xml version="1.0" encoding="UTF-8"?>
<svg id="Layer_1" xmlns="http://www.w3.org/2000/svg" viewBox="0 0 496 496">
  <defs>
    <style>
      .cls-1 {
        fill: #fff;
      }
    </style>
  </defs>
  <path class="cls-1" d="M248,496C111,496,0,385,0,248S111,0,248,0s248,111,248,248-111,248-248,248ZM134.1,265l135.5,135.5c9.4,9.4,24.6,9.4,33.9,0l17-17c9.4-9.4,9.4-24.6,0-33.9l-101.6-101.6,101.6-101.6c9.4-9.4,9.4-24.6,0-33.9l-17-17c-9.4-9.4-24.6-9.4-33.9,0l-135.5,135.5c-9.4,9.4-9.4,24.6,0,34Z"/>
  <path d="M320.5,112.5l-17-17c-9.4-9.4-24.6-9.4-33.9,0l-135.5,135.5c-9.4,9.4-9.4,24.6,0,34l135.5,135.5c9.4,9.4,24.6,9.4,33.9,0l17-17c9.4-9.4,9.4-24.6,0-33.9l-101.6-101.6,101.6-101.6c9.4-9.4,9.4-24.6,0-33.9Z"/>
</svg>