<svg enable-background="new 0 0 24 24" height="24" viewBox="0 0 24 24" width="24" xmlns="http://www.w3.org/2000/svg"><path d="m0 0h24v24h-24z" fill="none"/><path d="m4 13c1.1 0 2-.9 2-2s-.9-2-2-2-2 .9-2 2 .9 2 2 2zm1.13 1.1c-.37-.06-.74-.1-1.13-.1-.99 0-1.93.21-2.78.58-.74.32-1.22 1.04-1.22 1.85v1.57h4.5v-1.61c0-.83.23-1.61.63-2.29zm14.87-1.1c1.1 0 2-.9 2-2s-.9-2-2-2-2 .9-2 2 .9 2 2 2zm4 3.43c0-.81-.48-1.53-1.22-1.85-.85-.37-1.79-.58-2.78-.58-.39 0-.76.04-1.13.1.4.68.63 1.46.63 2.29v1.61h4.5zm-7.76-2.78c-1.17-.52-2.61-.9-4.24-.9s-3.07.39-4.24.9c-1.08.48-1.76 1.56-1.76 2.74v1.61h12v-1.61c0-1.18-.68-2.26-1.76-2.74zm-8.17 2.35c.09-.23.13-.39.91-.69.97-.38 1.99-.56 3.02-.56s2.05.18 3.02.56c.77.3.81.46.91.69zm3.93-8c.55 0 1 .45 1 1s-.45 1-1 1-1-.45-1-1 .45-1 1-1m0-2c-1.66 0-3 1.34-3 3s1.34 3 3 3 3-1.34 3-3-1.34-3-3-3z"/></svg>