<?xml version="1.0" encoding="UTF-8"?>
<svg id="Layer_1" xmlns="http://www.w3.org/2000/svg" viewBox="0 0 20 20">
  <defs>
    <style>
      .cls-1 {
        fill: #4a89ff;
        fill-rule: evenodd;
      }
    </style>
  </defs>
  <path class="cls-1" d="M10,0c5.52,0,10,4.48,10,10s-4.48,10-10,10S0,15.52,0,10,4.48,0,10,0ZM10,2C5.58,2,2,5.58,2,10s3.58,8,8,8,8-3.58,8-8S14.42,2,10,2ZM10,8c.55,0,1,.45,1,1v6c0,.55-.45,1-1,1s-1-.45-1-1v-6c0-.55.45-1,1-1ZM10,4c.55,0,1,.45,1,1s-.45,1-1,1-1-.45-1-1,.45-1,1-1Z"/>
</svg>