<svg enable-background="new 0 0 1200 1200" height="1200" viewBox="0 0 1200 1200" width="1200" xmlns="http://www.w3.org/2000/svg"><path d="m471.701 1111.207c206.073-204.929 367.269-368.743 546.569-544.595 59.195-61.825 96.687-122.337 112.472-181.532 27.626-111.707-14.849-208.44-88.793-284.137-71.035-71.034-147.002-104.578-227.902-100.631s-160.812 44.726-239.74 122.337l-503.161 505.131 82.874 80.899 503.16-503.158c51.63-49.087 113.07-95.365 183.505-88.793 107.317 15.066 202.091 146.416 177.587 238.754-31.071 81.924-73.905 119.289-133.189 178.571-180.341 179.88-320.956 318.983-496.253 494.279-65.88 60.199-108.486 76.498-169.692 19.732-31.571-31.571-45.383-62.484-41.437-92.739 4.379-35.301 24.363-59.717 47.355-82.873l459.748-459.75c21.003-21.04 68.836-61.425 88.793-43.409 15.311 35.521-24.12 69.425-43.408 88.793l-422.26 422.259 80.899 82.874 424.232-422.258c73.069-75.365 125.566-167.46 43.409-252.566-90.862-77.988-186.583-25.923-254.539 41.437l-459.748 459.748c-47.355 47.355-74.323 98.658-80.899 153.908-5.188 77.454 29.733 139.628 76.953 187.451 44.385 44.143 92.336 68.594 151.936 69.061 71.656-2.869 142.112-50.066 181.529-88.793z"/></svg>