<?xml version="1.0" encoding="UTF-8"?>
<svg id="Layer_1" xmlns="http://www.w3.org/2000/svg" viewBox="0 0 576 511.9">
  <defs>
    <style>
      .cls-1 {
        fill: #fff;
      }
    </style>
  </defs>
  <path class="cls-1" d="M402.6,83.1l90.2,90.2c3.8,3.8,3.8,10,0,13.8l-218.4,218.4-92.8,10.3c-12.4,1.4-22.9-9.1-21.5-21.5l10.3-92.8,218.4-218.4c3.8-3.8,10-3.8,13.8,0h0ZM564.6,60.2l-48.8-48.8c-15.2-15.2-39.9-15.2-55.2,0l-35.4,35.4c-3.8,3.8-3.8,10,0,13.8l90.2,90.2c3.8,3.8,10,3.8,13.8,0l35.4-35.4c15.2-15.3,15.2-40,0-55.2ZM384,346.1v101.8H64V127.9h229.8c3.2,0,6.2-1.3,8.5-3.5l40-40c7.6-7.6,2.2-20.5-8.5-20.5H48C21.5,63.9,0,85.4,0,111.9v352c0,26.5,21.5,48,48,48h352c26.5,0,48-21.5,48-48v-157.8c0-10.7-12.9-16-20.5-8.5l-40,40c-2.2,2.3-3.5,5.3-3.5,8.5h0Z"/>
</svg>