<?xml version="1.0" encoding="UTF-8"?>
<svg xmlns="http://www.w3.org/2000/svg" viewBox="0 0 512 496.62">
  <g id="Layer_1" image-rendering="optimizeQuality" shape-rendering="geometricPrecision" text-rendering="geometricPrecision">
    <path d="M309.42,226.17h-90.4c-56.82,0-83.09,5.97-91.71,19.49-11.56,18.12-11.98,61.33-11.98,123.87v127.09H0v-127.09c0-82.01,1.01-139.4,30.45-185.58,32.39-50.8,86.86-73.11,188.57-73.11h91.37c-2.43-25.38-6.59-53.5-12.73-87.6-.72-3.99-.2-7.82,1.11-11.07l.23-.52c1.65-3.65,4.38-6.71,7.82-8.76,3.43-2.04,7.37-3.04,11.36-2.87l.3.02c3.62.22,7.26,1.46,10.57,3.94l175.77,145.39c2,1.65,3.65,3.67,4.86,5.96l.22.42c1.19,2.36,1.9,5.06,2.08,7.95.15,3.37-.47,6.32-1.66,8.92-1.02,2.25-2.45,4.16-4.16,5.99l-176.02,153.46c-3.17,2.72-6.71,4.28-10.3,4.73l-.47.07c-3.81.45-7.7-.35-11.04-2.01l-.62-.29c-3.44-1.86-6.44-4.93-8.34-8.64-1.71-3.4-2.5-7.33-1.93-11.47l.02-.29c5.25-34.27,9.31-62.52,11.96-88h0Z"/>
  </g>
</svg>