<svg xmlns="http://www.w3.org/2000/svg" shape-rendering="geometricPrecision" text-rendering="geometricPrecision" image-rendering="optimizeQuality" fill-rule="evenodd" clip-rule="evenodd" viewBox="0 0 512 496.62"><path fill-rule="nonzero" d="M202.58 270.45h90.4c56.82 0 83.09-5.97 91.71-19.49 11.56-18.12 11.98-61.33 11.98-123.87V0H512v127.09c0 82.01-1.01 139.4-30.45 185.58-32.39 50.8-86.86 73.11-188.57 73.11h-91.37c2.43 25.38 6.59 53.5 12.73 87.6.72 3.99.2 7.82-1.11 11.07l-.23.52a19.604 19.604 0 0 1-7.82 8.76 20.498 20.498 0 0 1-11.36 2.87l-.3-.02c-3.62-.22-7.26-1.46-10.57-3.94L7.18 347.25a19.739 19.739 0 0 1-4.86-5.96l-.22-.42c-1.19-2.36-1.9-5.06-2.08-7.95-.15-3.37.47-6.32 1.66-8.92 1.02-2.25 2.45-4.16 4.16-5.99l176.02-153.46c3.17-2.72 6.71-4.28 10.3-4.73l.47-.07c3.81-.45 7.7.35 11.04 2.01l.62.29c3.44 1.86 6.44 4.93 8.34 8.64 1.71 3.4 2.5 7.33 1.93 11.47l-.02.29c-5.25 34.27-9.31 62.52-11.96 88z"/></svg>